<svg width="1231" height="862" viewBox="0 0 1231 862" fill="none" xmlns="http://www.w3.org/2000/svg">
<path d="M293.077 676.072C294.407 673.092 295.277 669.932 295.497 666.542C297.527 635.802 265.317 640.792 246.247 631.832C228.437 623.462 227.687 604.052 226.417 586.932C224.727 564.012 223.197 547.782 207.407 529.462C173.697 490.342 181.647 447.612 163.787 402.182C152.247 372.832 125.067 350.082 95.2371 339.362C86.3971 336.182 76.1071 333.782 65.2671 336.982C45.5571 342.792 34.9771 363.842 36.6271 379.232C38.2771 394.612 47.7971 407.142 50.6871 422.142C53.5771 437.142 46.5271 457.822 27.5271 466.402C17.9971 470.702 5.13712 472.632 1.04712 480.732C-0.782881 484.352 0.0871195 487.932 1.36712 491.042C7.02712 504.842 20.1571 514.562 25.1471 528.592C31.0271 545.132 23.6071 557.732 17.3571 572.852C14.5571 579.642 13.1171 587.772 16.8871 594.082C23.8471 605.712 40.8271 602.612 48.7871 613.002C58.2571 625.372 41.9471 644.982 28.3671 660.062C14.7871 675.142 3.48712 698.032 19.3271 704.862C24.2571 706.992 30.7171 706.742 36.5071 707.562C62.5271 711.222 71.3771 734.702 77.1971 755.702C83.4771 778.342 107.847 785.712 124.317 799.102C142.887 814.192 148.817 843.792 179.837 830.832C201.077 821.962 210.737 799.342 222.767 781.402C235.947 761.742 249.977 742.312 258.347 719.982C264.867 703.382 285.847 692.282 293.077 676.072Z" fill="#EF7E7E"/>
<path d="M178.157 833.531C177.507 833.531 176.927 833.081 176.787 832.421L106.117 501.261C105.957 500.501 106.437 499.751 107.197 499.591C107.957 499.421 108.697 499.911 108.867 500.671L179.537 831.831C179.697 832.591 179.217 833.341 178.457 833.501C178.357 833.521 178.257 833.531 178.157 833.531Z" fill="white"/>
<path d="M133.137 615.971C133.057 615.971 132.967 615.961 132.887 615.951C132.127 615.811 131.617 615.081 131.757 614.321L144.397 543.931C144.537 543.171 145.267 542.671 146.027 542.801C146.787 542.941 147.297 543.671 147.157 544.431L134.517 614.821C134.397 615.491 133.807 615.971 133.137 615.971Z" fill="white"/>
<path d="M158.207 740.001C157.767 740.001 157.327 739.791 157.057 739.401L118.687 684.241C118.247 683.601 118.397 682.731 119.037 682.281C119.677 681.841 120.547 681.991 120.997 682.631L159.367 737.791C159.807 738.431 159.657 739.301 159.017 739.751C158.757 739.921 158.477 740.001 158.207 740.001Z" fill="white"/>
<path d="M712.407 861.021C996.486 861.021 1226.78 854.283 1226.78 845.971C1226.78 837.66 996.486 830.921 712.407 830.921C428.328 830.921 198.037 837.66 198.037 845.971C198.037 854.283 428.328 861.021 712.407 861.021Z" fill="#E3E5FC"/>
<path d="M830.887 785.661C827.817 779.681 825.267 773.131 825.717 766.421C826.537 754.231 836.627 745.081 845.327 736.501C854.027 727.921 862.577 716.321 859.287 704.551C856.127 693.241 843.797 687.721 833.357 682.351C822.917 676.981 811.747 667.441 814.047 655.931C817.347 639.441 844.547 636.871 847.497 620.311C848.567 614.321 845.887 608.361 843.287 602.851C834.397 584.061 825.507 565.271 816.617 546.481C812.547 537.881 808.897 526.491 815.707 519.851C820.297 515.381 827.507 515.481 833.517 513.281C849.117 507.561 853.797 488.301 857.377 472.071C860.957 455.851 869.297 436.721 885.867 435.521C892.247 435.061 898.487 437.591 903.997 440.851C925.847 453.781 939.327 479.661 937.407 504.981C936.587 515.821 933.487 527.921 939.887 536.711C943.217 541.281 948.497 543.911 953.157 547.101C970.997 559.291 980.857 582.201 977.437 603.531C975.107 618.091 967.347 633.591 974.187 646.651C981.847 661.261 1003.78 663.751 1011.05 678.551C1017.04 690.731 1010.23 705.211 1002.37 716.281C994.507 727.351 984.997 738.841 985.337 752.411C985.507 759.431 988.387 766.111 989.147 773.091C991.097 790.891 979.147 807.381 965.277 818.711C947.367 833.351 920.197 848.881 896.557 841.041C869.497 832.071 843.867 810.941 830.887 785.661Z" fill="#EF7E7E"/>
<path d="M918.877 844.562C918.157 844.562 917.537 844.002 917.477 843.272L895.857 575.492C895.797 574.722 896.377 574.042 897.147 573.982C898.007 573.952 898.597 574.492 898.657 575.272L920.277 843.052C920.337 843.822 919.757 844.502 918.987 844.562C918.957 844.562 918.917 844.562 918.877 844.562Z" fill="white"/>
<path d="M903.567 654.832C903.257 654.832 902.947 654.732 902.687 654.522C902.077 654.042 901.987 653.152 902.467 652.552L940.447 605.152C940.937 604.542 941.817 604.452 942.427 604.932C943.037 605.412 943.127 606.302 942.647 606.902L904.667 654.302C904.387 654.652 903.977 654.832 903.567 654.832Z" fill="white"/>
<path d="M912.637 747.231C912.327 747.231 912.017 747.131 911.757 746.921C911.147 746.441 911.057 745.551 911.537 744.951L949.517 697.551C950.007 696.941 950.887 696.851 951.497 697.331C952.107 697.811 952.197 698.701 951.717 699.301L913.737 746.701C913.457 747.051 913.047 747.231 912.637 747.231Z" fill="white"/>
<path d="M908.067 710.672C907.737 710.672 907.417 710.562 907.147 710.332L871.667 679.782C871.077 679.272 871.017 678.392 871.517 677.802C872.027 677.212 872.907 677.142 873.497 677.652L908.977 708.202C909.567 708.712 909.627 709.592 909.127 710.182C908.857 710.502 908.467 710.672 908.067 710.672Z" fill="white"/>
<path d="M923.407 771.911C921.507 767.971 919.557 763.801 919.897 759.441C920.377 753.351 925.147 748.541 929.927 744.731C940.797 736.061 953.307 729.381 963.017 719.421C972.727 709.461 979.347 694.701 974.637 681.621C970.927 671.321 960.787 663.471 960.117 652.541C959.217 638.071 974.737 628.701 982.027 616.171C988.097 605.741 988.317 593.011 991.997 581.521C995.677 570.031 1005.78 558.461 1017.65 560.621C1030.71 562.991 1035.34 579.321 1035.5 592.601C1035.66 605.881 1034.94 621.301 1045.06 629.891C1048.56 632.861 1053.12 634.691 1055.83 638.401C1058.29 641.781 1058.79 646.161 1059.22 650.321C1061.58 673.481 1063.44 698.811 1050.4 718.091C1047.42 722.501 1043.63 726.661 1042.59 731.891C1040.03 744.821 1055.28 756.121 1053.19 769.141C1051.41 780.181 1038.63 785.331 1031.92 794.281C1024.3 804.441 1024.95 819.091 1017.22 829.161C1005.7 844.171 972.987 847.231 957.887 835.861C940.777 822.961 932.297 790.301 923.407 771.911Z" fill="#F44E4E"/>
<path d="M977.127 844.642C977.057 844.642 976.977 844.632 976.897 844.622C976.137 844.492 975.617 843.772 975.737 843.002L1009.63 637.892C1009.75 637.132 1010.41 636.592 1011.25 636.732C1012.01 636.862 1012.53 637.582 1012.41 638.352L978.517 843.462C978.397 844.152 977.797 844.642 977.127 844.642Z" fill="white"/>
<path d="M1000.73 710.111C1000.41 710.111 1000.08 710.001 999.818 709.781C999.228 709.271 999.158 708.391 999.658 707.801L1033.17 668.471C1033.67 667.881 1034.56 667.811 1035.15 668.311C1035.74 668.811 1035.81 669.701 1035.31 670.291L1001.8 709.621C1001.52 709.941 1001.12 710.111 1000.73 710.111Z" fill="white"/>
<path d="M986.697 786.711C986.187 786.711 985.697 786.431 985.447 785.951L965.787 747.691C965.437 747.001 965.707 746.151 966.397 745.801C967.097 745.441 967.927 745.721 968.297 746.411L987.957 784.671C988.307 785.361 988.037 786.211 987.347 786.561C987.137 786.661 986.917 786.711 986.697 786.711Z" fill="white"/>
<path d="M1088.24 800.862C1093.32 794.372 1103.44 790.242 1102.9 782.022C1102.44 775.042 1093.8 769.732 1095.49 762.942C1097.09 756.552 1105.82 755.912 1112.37 756.682C1113.66 752.262 1112.69 747.562 1112.24 742.982C1111.79 738.402 1112.05 733.302 1115.18 729.922C1118.31 726.542 1125.11 726.722 1126.57 731.082C1128.89 724.532 1131.21 717.992 1133.54 711.442C1134.49 708.752 1135.88 705.672 1138.67 705.092C1142.74 704.242 1145.49 709.602 1144.85 713.712C1144.21 717.822 1141.8 721.632 1141.95 725.792C1142.14 731.072 1147.17 735.672 1152.45 735.402C1147.02 739.632 1141.02 746.702 1144.81 752.442C1146.72 755.332 1150.98 757.732 1149.72 760.952C1148.47 764.162 1142.7 763.872 1141.99 767.252C1141.03 771.752 1150.6 773.842 1148.8 778.082C1142.9 777.152 1137.8 784.982 1141.04 790.002C1144.6 795.522 1153.33 794.702 1158.08 799.242C1161.49 802.502 1162.02 807.922 1160.62 812.422C1155.12 830.122 1134.42 851.392 1115 844.442C1099.57 838.902 1073.47 819.712 1088.24 800.862Z" fill="#EF7E7E"/>
<path d="M1120.4 847.062C1120.37 847.062 1120.33 847.062 1120.29 847.062C1119.52 847.002 1118.94 846.332 1118.99 845.552L1126.28 748.282C1126.33 747.512 1126.91 746.942 1127.79 746.982C1128.56 747.042 1129.14 747.712 1129.09 748.492L1121.8 845.762C1121.75 846.492 1121.13 847.062 1120.4 847.062Z" fill="white"/>
<path d="M1123.46 806.222C1123.15 806.222 1122.83 806.122 1122.57 805.902L1104.68 791.322C1104.08 790.832 1103.99 789.952 1104.48 789.342C1104.97 788.742 1105.86 788.652 1106.46 789.142L1124.35 803.722C1124.95 804.212 1125.04 805.092 1124.55 805.702C1124.27 806.042 1123.87 806.222 1123.46 806.222Z" fill="white"/>
<path d="M1122.83 833.142C1122.42 833.142 1122.01 832.962 1121.74 832.622C1121.25 832.022 1121.35 831.132 1121.95 830.642L1150.21 807.822C1150.81 807.342 1151.69 807.432 1152.19 808.032C1152.68 808.632 1152.58 809.522 1151.98 810.012L1123.72 832.832C1123.45 833.042 1123.14 833.142 1122.83 833.142Z" fill="white"/>
<path d="M171.277 636.422C169.407 629.912 163.557 624.462 159.207 618.602C154.867 612.752 152.037 605.422 156.427 599.592C158.477 596.882 161.837 594.852 164.667 592.532C177.587 581.942 178.307 566.032 174.217 552.172C170.127 538.312 161.997 525.122 159.537 511.052C157.267 498.022 161.967 482.532 178.167 476.792C190.057 472.582 205.257 475.322 214.627 482.122C223.997 488.932 227.887 499.072 226.917 508.692C226.527 512.542 225.537 516.752 228.397 520.002C234.037 526.432 248.737 523.522 256.757 528.422C263.617 532.612 262.617 540.492 259.727 546.672C256.837 552.842 252.617 559.312 255.017 565.602C257.987 573.362 270.307 578.212 271.557 586.222C272.067 589.502 270.567 592.872 271.557 596.092C274.327 605.162 295.007 609.882 290.687 618.632C287.337 625.422 272.007 624.592 267.277 630.932C262.247 637.662 273.357 645.442 271.967 653.042C271.497 655.632 269.587 657.942 267.727 660.172C255.057 675.342 242.377 690.502 229.707 705.672C227.417 708.412 225.087 711.192 221.927 713.422C202.467 727.172 172.837 718.322 169.527 700.662C167.947 692.252 165.877 682.322 165.257 673.812C164.357 661.192 174.867 648.932 171.277 636.422Z" fill="#F44E4E"/>
<rect x="209.498" y="571.666" width="2.80999" height="268.649" transform="rotate(-3.43409 209.498 571.666)" fill="white"/>
<rect x="214.56" y="648.854" width="60.742" height="2.81009" transform="rotate(-50.1277 214.56 648.854)" fill="white"/>
<rect x="183.195" y="675.433" width="2.81008" height="46.8313" transform="rotate(-48.0886 183.195 675.433)" fill="white"/>
<path d="M59.177 826.821C55.637 822.631 52.597 817.791 51.807 812.371C51.617 811.061 51.597 809.611 52.387 808.551C53.067 807.631 54.227 807.191 55.347 806.961C63.287 805.261 70.737 811.081 76.477 816.831C86.607 826.991 95.647 838.231 103.397 850.301C98.757 843.081 96.317 829.231 97.417 820.741C97.457 820.411 97.527 820.041 97.787 819.831C98.057 819.611 98.437 819.631 98.767 819.691C101.207 820.161 102.747 822.531 103.917 824.731C107.537 831.531 110.697 839.391 112.797 847.021C111.477 842.231 115.387 836.461 118.927 833.601C125.267 828.501 123.917 835.621 122.537 839.801C121.187 843.901 112.227 859.961 105.837 856.371C104.667 855.711 104.377 852.131 103.417 850.971C101.747 848.971 99.417 848.311 97.017 847.571C90.577 845.571 83.867 844.741 77.797 841.601C70.717 837.921 64.327 832.911 59.177 826.821Z" fill="#F44E4E"/>
<path d="M820.387 839.612C821.197 831.352 821.177 823.692 823.887 815.632C824.797 812.912 826.097 810.012 828.677 808.772C829.167 808.532 829.747 808.372 830.237 808.592C830.667 808.782 830.937 809.212 831.157 809.642C845.197 836.542 807.517 851.672 790.327 831.442C789.267 830.192 788.267 828.762 788.117 827.122C787.847 824.122 790.707 821.532 793.697 821.182C796.687 820.832 799.617 822.192 802.087 823.902C808.627 828.432 812.977 835.412 817.137 842.182C811.337 833.462 808.347 822.912 808.697 812.452C808.747 810.882 809.277 808.872 810.847 808.742C811.597 808.682 812.287 809.112 812.887 809.572C817.167 812.862 819.577 818.132 820.477 823.462C821.377 828.782 820.907 834.232 820.387 839.612Z" fill="#F44E4E"/>
<path d="M236.857 793.162C237.237 793.172 237.617 793.272 238.007 793.482C239.227 794.142 239.677 795.642 239.967 797.002C242.617 809.432 242.547 806.382 241.227 822.692C244.007 812.512 242.907 814.292 248.107 805.102C249.117 803.312 250.237 801.482 251.987 800.412C263.337 793.462 252.347 824.252 250.427 827.782C243.307 840.882 229.457 844.122 216.017 839.302C204.227 835.072 192.967 825.892 188.747 813.882C188.367 812.802 188.087 811.442 188.897 810.622C189.457 810.062 190.327 809.982 191.117 809.972C198.237 809.962 204.907 813.582 210.357 818.162C215.797 822.752 220.307 828.332 225.427 833.272C229.057 836.772 237.067 836.572 242.067 837.172C250.577 838.202 253.937 834.902 261.327 830.552C262.937 829.602 264.697 828.742 266.567 828.762C268.437 828.782 270.417 829.952 270.767 831.792C270.977 832.882 270.597 834.002 270.117 835.012C264.067 847.792 247.577 846.072 240.307 835.872C233.377 826.142 228.907 809.942 232.227 798.272C232.897 795.912 234.757 793.122 236.857 793.162Z" fill="#EF7E7E"/>
<path d="M1206.94 813.161C1207.2 813.171 1207.47 813.231 1207.74 813.381C1208.59 813.841 1208.9 814.891 1209.1 815.841C1210.95 824.521 1210.9 822.391 1209.98 833.771C1211.92 826.661 1211.15 827.911 1214.78 821.491C1215.48 820.241 1216.27 818.961 1217.49 818.211C1225.41 813.361 1217.74 834.841 1216.4 837.311C1211.43 846.451 1201.76 848.721 1192.39 845.351C1184.16 842.401 1176.3 835.991 1173.36 827.611C1173.09 826.851 1172.9 825.911 1173.47 825.331C1173.86 824.941 1174.47 824.881 1175.02 824.881C1179.99 824.871 1184.65 827.401 1188.44 830.601C1192.23 833.801 1195.38 837.701 1198.96 841.151C1201.49 843.591 1207.08 843.451 1210.57 843.871C1216.51 844.591 1218.85 842.281 1224.01 839.251C1225.13 838.591 1226.36 837.981 1227.67 838.001C1228.97 838.011 1230.35 838.831 1230.6 840.111C1230.75 840.871 1230.48 841.651 1230.15 842.351C1225.93 851.271 1214.42 850.071 1209.35 842.951C1204.51 836.161 1201.4 824.851 1203.71 816.711C1204.18 815.081 1205.48 813.131 1206.94 813.161Z" fill="#F44E4E"/>
<path d="M435.367 336.052L550.267 207.752L534.027 245.662L442.127 336.052H435.367Z" fill="#CCCAD6"/>
<path d="M498.767 466.912L421.797 437.292C408.367 432.122 401.607 416.902 406.777 403.472L429.117 345.412C434.287 331.982 449.507 325.222 462.937 330.392L539.907 360.012C553.337 365.182 560.097 380.402 554.927 393.832L532.587 451.892C527.417 465.322 512.207 472.082 498.767 466.912Z" fill="#CCCAD6"/>
<path d="M728.297 252.982L773.677 176.662C773.677 176.662 791.377 166.572 787.587 180.152C783.797 193.732 743.747 259.552 743.747 259.552L728.297 252.982Z" fill="#F44E4E"/>
<path d="M599.957 191.862L586.437 235.282L548.607 239.832C548.607 239.832 577.017 214.772 580.347 186.882C583.687 159.002 599.957 191.862 599.957 191.862Z" fill="#D4A79A"/>
<path d="M653.587 109.592C653.587 109.592 658.577 121.442 643.517 150.072C628.467 178.702 609.977 201.732 601.257 197.562C577.137 186.042 572.777 165.832 567.867 148.182C561.857 126.542 594.987 85.8818 594.987 85.8818L618.017 80.0918L653.587 109.592Z" fill="#EAC2AB"/>
<path d="M574.287 122.932C574.287 122.932 571.847 140.552 571.817 161.852C571.817 162.652 571.747 163.312 571.237 163.922C569.977 165.412 560.487 149.512 559.777 148.282C555.117 140.262 547.997 130.462 550.817 120.752C551.607 118.042 553.027 115.492 553.277 112.692C553.737 107.412 549.667 104.062 548.727 99.3219C547.847 94.9219 549.027 89.9019 550.387 85.7419C552.977 77.8419 558.237 69.1919 565.457 64.7219C571.147 61.2019 575.967 62.9219 581.657 60.9419C584.657 59.9019 586.007 56.5219 588.027 54.0719C591.137 50.3119 596.197 48.5919 601.077 48.4619C607.097 48.2919 615.787 49.4919 620.917 52.9719C627.447 57.4019 628.097 69.1119 634.267 72.3819C635.327 72.9419 636.547 73.0719 637.737 73.1819C649.247 74.3019 660.167 73.7819 669.387 81.6619C683.947 94.1019 673.967 138.102 652.487 125.652C650.027 124.222 647.937 122.242 645.587 120.632C634.287 112.862 619.937 125.882 612.327 106.232C610.967 102.722 587.477 101.472 587.167 111.062C586.777 123.582 574.287 122.932 574.287 122.932Z" fill="#FF7C7C"/>
<path d="M579.517 122.642C579.517 122.642 572.837 109.692 569.767 126.092C566.697 142.492 574.307 147.962 574.307 147.962L579.517 122.642Z" fill="#EAC2AB"/>
<path d="M408.967 729.762L374.687 777.572L357.527 767.752L396.257 719.992C396.257 720.002 406.397 724.012 408.967 729.762Z" fill="#D4A79A"/>
<path d="M417.437 836.802C416.577 837.822 409.987 836.272 408.987 836.122C398.667 834.592 382.727 832.762 374.837 825.362C367.157 818.152 363.237 807.272 356.767 799.042C352.207 793.252 345.857 789.152 340.087 784.632C333.727 779.642 353.167 750.052 360.817 756.592C367.007 761.892 361.737 772.922 379.507 774.272C394.727 775.432 381.697 795.312 397.067 810.932C410.647 824.752 426.807 825.672 417.437 836.802Z" fill="#5F5C53"/>
<path d="M515.347 531.672C503.717 573.142 510.477 573.822 481.837 606.172C467.867 621.952 390.507 687.112 376.107 702.532C355.567 724.522 376.987 734.632 392.227 741.072C402.197 745.282 408.147 767.192 423.297 751.062C424.797 749.472 450.877 715.802 458.707 701.052C467.667 684.162 519.057 637.962 536.767 621.722C578.927 583.072 557.617 564.502 583.417 513.902C593.237 494.632 591.057 474.122 593.967 451.962C595.747 438.402 575.057 374.932 546.277 386.152C528.367 393.142 535.207 429.472 535.967 443.802C536.497 453.712 537.927 464.642 535.467 474.232C530.417 493.912 520.847 512.082 515.347 531.672Z" fill="#9C8B8B"/>
<path d="M606.237 750.982L619.247 810.172L599.907 816.552L589.997 753.982C590.007 753.992 600.057 748.982 606.237 750.982Z" fill="#EAC2AB"/>
<path d="M698.447 833.502C698.447 833.502 683.977 838.442 656.237 840.502C628.497 842.562 597.537 843.592 591.917 839.472C586.287 835.352 582.667 800.362 591.917 800.362C601.167 800.362 604.757 813.742 621.067 801.802C635.037 791.572 646.197 810.862 670.517 816.002C694.837 821.142 704.677 823.202 698.447 833.502Z" fill="#5F5C53"/>
<path d="M655.157 774.032C654.227 771.862 651.787 770.242 649.667 768.552C630.297 753.112 640.407 729.672 638.127 708.982C631.017 644.522 643.257 606.812 619.017 540.962C602.517 496.152 598.067 466.582 594.077 416.802C592.687 399.522 626.917 377.192 600.807 382.132C588.437 384.472 576.227 384.012 563.897 381.852C557.407 380.712 564.027 378.602 557.407 380.712C534.857 387.912 518.077 428.282 517.797 443.832C517.167 478.692 543.927 501.572 551.237 532.062C564.077 585.612 584.257 623.492 578.987 667.552C576.407 689.142 573.407 710.672 570.527 732.222C568.847 744.792 558.337 772.332 565.387 783.712C575.067 799.332 618.197 786.092 632.607 785.742C643.437 785.472 658.317 781.402 655.157 774.032Z" fill="#C5AEAE"/>
<path d="M605.987 299.612C599.447 273.072 606.547 228.432 587.837 208.742C585.917 206.722 583.887 204.732 581.347 203.582C557.837 192.992 543.657 212.292 533.547 229.022C523.427 245.772 523.657 263.892 518.717 282.672C513.097 304.022 514.227 326.222 513.827 348.262C513.577 361.682 515.217 375.012 514.457 388.452C513.927 397.832 512.597 407.152 510.457 416.292C509.037 422.372 501.087 434.442 503.407 440.632C505.247 445.532 513.667 443.682 517.807 443.822C533.817 444.352 549.507 439.602 563.747 432.562C576.757 426.132 590.507 426.382 605.517 425.142C612.967 424.522 622.627 418.102 619.257 404.562C611.267 372.472 613.597 344.362 610.297 321.702C609.217 314.382 607.797 306.972 605.987 299.612Z" fill="#D7384E"/>
<path d="M564.267 243.042C564.267 243.042 597.737 319.412 614.017 329.702C630.297 339.992 644.397 338.522 673.097 319.732C701.807 300.942 727.617 278.502 730.347 275.942C733.077 273.382 756.617 270.582 758.677 260.422C760.737 250.262 769.687 217.392 761.067 223.842C752.447 230.292 745.017 251.572 737.837 251.942C730.657 252.312 740.827 229.962 734.297 233.562C727.767 237.162 727.307 243.082 724.957 248.112C722.607 253.142 725.707 258.812 711.437 271.312C697.167 283.812 650.497 316.442 637.067 314.012C623.637 311.572 574.437 239.202 572.427 233.662C570.407 228.132 564.267 243.042 564.267 243.042Z" fill="#EAC2AB"/>
<path d="M610.397 268.182C610.397 268.182 590.057 207.302 565.877 219.572C541.697 231.842 577.567 296.532 577.567 296.532L616.847 275.872L610.397 268.182Z" fill="#F44E4E"/>
<path d="M790.847 63.0318C793.327 67.0218 797.877 69.6418 801.737 67.7918C797.367 73.3418 798.607 88.9718 797.447 96.4618C820.007 79.6618 842.587 62.5018 869.167 63.5718C873.467 63.7418 878.217 64.0018 881.577 60.8018C883.157 59.2918 884.247 57.1618 885.147 54.9918C891.037 40.7718 890.097 24.0518 889.027 8.24178C888.837 5.50178 888.457 2.35178 886.497 0.901784C885.377 0.0717844 883.997 0.0117844 882.677 0.00178439C859.997 -0.138216 837.717 8.01178 814.997 6.16178C807.777 5.57178 794.447 -2.29822 787.977 2.43178C782.247 6.63178 782.917 18.1218 783.337 24.8918C784.037 36.2518 785.027 53.6418 790.847 63.0318Z" fill="#E3E5FC"/>
<path fill-rule="evenodd" clip-rule="evenodd" d="M883.707 105.352L882.927 109.532L887.637 106.602C909.257 93.092 931.727 79.162 957.467 80.002C961.937 80.162 967.027 80.332 970.857 77.262C972.847 75.682 974.077 73.492 974.937 71.762C981.227 59.042 979.997 43.822 978.997 31.602C978.837 29.582 978.527 25.832 975.587 24.012C974.077 23.072 972.397 22.992 970.797 22.982C960.737 22.8679 950.957 24.1914 941.354 25.491C940.858 25.5581 940.362 25.6252 939.867 25.692L939.775 25.7043C927.804 27.3105 915.436 28.9699 903.237 28.142C900.987 27.992 897.927 27.152 894.697 26.262C887.847 24.372 880.077 22.232 875.107 25.292C868.377 29.432 869.157 40.112 869.577 45.852L869.607 46.252C870.307 55.942 871.377 70.592 877.447 78.792C879.457 81.502 882.787 83.702 886.317 84.012C884.811 87.961 884.549 93.2924 884.309 98.1516L884.307 98.192C884.301 98.317 884.294 98.4417 884.288 98.5661C884.156 101.167 884.032 103.605 883.707 105.352ZM891.197 82.952L897.007 76.762L889.137 79.922C886.027 81.172 882.347 79.122 880.447 76.562C875.017 69.232 873.997 55.232 873.327 45.972L873.297 45.572C872.927 40.622 872.257 31.422 877.047 28.482C880.614 26.2801 887.516 28.178 893.61 29.8535L893.677 29.872L893.768 29.8968C897.164 30.8276 900.36 31.7036 902.957 31.882C915.567 32.732 928.167 31.042 940.347 29.402L940.655 29.3605C950.518 28.0335 960.633 26.6725 970.757 26.722C971.867 26.732 972.917 26.772 973.597 27.192C974.767 27.922 975.087 29.882 975.247 31.902L975.251 31.9454C976.2 43.708 977.38 58.3265 971.557 70.102C970.867 71.482 969.907 73.212 968.497 74.332C965.743 76.5276 961.614 76.3925 957.343 76.2528L957.317 76.252C931.427 75.392 909.257 88.692 887.837 102.052C887.917 100.882 887.977 99.652 888.037 98.382C888.317 92.712 888.667 85.652 891.197 82.952Z" fill="#E3E5FC"/>
<path d="M822.457 108.862C824.937 112.202 829.487 114.402 833.347 112.852C828.977 117.502 830.217 130.602 829.057 136.872C851.617 122.792 874.197 108.412 900.777 109.302C905.077 109.442 909.827 109.662 913.187 106.982C914.767 105.722 915.857 103.932 916.757 102.112C922.647 90.1916 921.707 76.1816 920.637 62.9316C920.447 60.6316 920.067 58.0016 918.107 56.7816C916.987 56.0916 915.607 56.0416 914.287 56.0316C891.607 55.9216 869.327 62.7516 846.607 61.1916C839.387 60.7016 826.057 54.1016 819.587 58.0616C813.857 61.5816 814.527 71.2116 814.947 76.8916C815.647 86.4216 816.637 100.992 822.457 108.862Z" fill="#FEE2E2"/>
<path d="M769.617 136.012C769.387 129.732 769.067 123.102 765.667 117.822C764.367 115.792 762.557 113.982 760.267 113.232C758.257 112.572 756.087 112.772 753.987 112.982C744.267 113.952 734.557 114.922 724.837 115.892C719.757 116.402 714.557 116.942 709.957 119.142C705.357 121.352 701.387 125.602 700.977 130.692C700.687 134.282 702.177 137.792 704.037 140.872C705.357 143.062 706.897 145.142 708.847 146.792C713.557 150.772 720.097 151.812 726.257 151.662C732.417 151.512 738.547 150.342 744.707 150.572C751.537 150.822 760.767 156.942 766.457 157.302C778.037 158.052 769.847 142.272 769.617 136.012Z" fill="#E3E5FC"/>
<path d="M883.967 130.562C886.997 128.962 890.607 129.052 894.037 129.182C916.967 130.022 939.897 130.862 962.827 131.712C964.247 131.762 965.717 131.832 966.967 132.512C969.217 133.732 970.027 136.512 970.577 139.012C972.327 146.892 973.587 154.882 974.347 162.912C974.567 165.282 974.727 167.802 973.667 169.942C971.667 173.952 966.457 174.862 961.997 175.292C944.407 176.972 926.747 178.652 909.097 177.782C901.437 177.402 893.727 176.552 886.107 177.472C878.347 178.412 860.067 187.582 852.897 183.932C847.707 181.292 853.167 178.392 856.777 175.122C863.487 169.062 869.887 163.522 873.387 154.912C876.447 147.352 875.747 134.892 883.967 130.562Z" fill="#E3E5FC"/>
<path d="M827.587 211.752C833.187 213.362 838.197 216.572 843.727 218.402C850.927 220.772 858.677 220.692 866.257 220.592C879.907 220.412 893.547 220.222 907.197 220.042C911.017 219.992 915.337 220.152 917.877 222.992C919.537 224.852 920.027 227.452 920.447 229.912C921.767 237.572 923.087 245.222 924.397 252.882C925.097 256.942 925.697 261.492 923.307 264.852C920.627 268.622 915.387 269.272 910.777 269.592C891.147 270.942 871.527 272.302 851.897 273.652C850.047 273.782 848.067 273.882 846.457 272.962C844.977 272.112 844.067 270.542 843.287 269.022C839.997 262.612 837.617 255.742 836.237 248.672C835.247 243.592 834.727 238.272 832.247 233.732C828.377 226.662 830.667 226.342 826.997 220.092C821.667 211.002 822.107 210.172 827.587 211.752Z" fill="#E3E5FC"/>
<path d="M998.557 93.6019C1001.72 94.5119 1004.56 96.3319 1007.69 97.3619C1011.76 98.7019 1016.14 98.6619 1020.43 98.6019C1028.15 98.5019 1035.87 98.3919 1043.58 98.2919C1045.74 98.2619 1048.18 98.3519 1049.62 99.9619C1050.56 101.012 1050.84 102.482 1051.08 103.872C1051.83 108.202 1052.57 112.532 1053.32 116.862C1053.72 119.162 1054.05 121.732 1052.7 123.632C1051.19 125.762 1048.22 126.132 1045.61 126.312C1034.51 127.082 1023.41 127.842 1012.31 128.612C1011.26 128.682 1010.14 128.742 1009.23 128.222C1008.39 127.742 1007.88 126.852 1007.44 125.992C1005.58 122.372 1004.23 118.482 1003.45 114.482C1002.89 111.602 1002.6 108.602 1001.19 106.032C998.997 102.032 1000.29 101.852 998.217 98.3219C995.207 93.1719 995.457 92.7119 998.557 93.6019Z" fill="#FEE2E2"/>
<path d="M902.167 160.972C905.188 160.972 907.637 158.523 907.637 155.502C907.637 152.481 905.188 150.032 902.167 150.032C899.146 150.032 896.697 152.481 896.697 155.502C896.697 158.523 899.146 160.972 902.167 160.972Z" fill="#EE2E24"/>
<path d="M925.027 160.972C928.048 160.972 930.497 158.523 930.497 155.502C930.497 152.481 928.048 150.032 925.027 150.032C922.006 150.032 919.557 152.481 919.557 155.502C919.557 158.523 922.006 160.972 925.027 160.972Z" fill="#EE2E24"/>
<path d="M948.937 160.972C951.958 160.972 954.407 158.523 954.407 155.502C954.407 152.481 951.958 150.032 948.937 150.032C945.916 150.032 943.467 152.481 943.467 155.502C943.467 158.523 945.916 160.972 948.937 160.972Z" fill="#EE2E24"/>
<path d="M1014.81 118.152C1016.8 118.152 1018.41 116.54 1018.41 114.552C1018.41 112.563 1016.8 110.952 1014.81 110.952C1012.82 110.952 1011.21 112.563 1011.21 114.552C1011.21 116.54 1012.82 118.152 1014.81 118.152Z" fill="white"/>
<path d="M1029.87 118.152C1031.86 118.152 1033.47 116.54 1033.47 114.552C1033.47 112.563 1031.86 110.952 1029.87 110.952C1027.88 110.952 1026.27 112.563 1026.27 114.552C1026.27 116.54 1027.88 118.152 1029.87 118.152Z" fill="white"/>
<path d="M1045.61 118.152C1047.6 118.152 1049.21 116.54 1049.21 114.552C1049.21 112.563 1047.6 110.952 1045.61 110.952C1043.62 110.952 1042.01 112.563 1042.01 114.552C1042.01 116.54 1043.62 118.152 1045.61 118.152Z" fill="white"/>
<path d="M871.127 29.9615H801.767C800.647 29.9615 799.727 29.0415 799.727 27.9215V20.3715C799.727 19.2515 800.647 18.3315 801.767 18.3315H871.127C872.247 18.3315 873.167 19.2515 873.167 20.3715V27.9215C873.167 29.0415 872.247 29.9615 871.127 29.9615Z" fill="white"/>
<path d="M871.127 49.0719H831.427C830.307 49.0719 829.387 48.1519 829.387 47.0319V39.4819C829.387 38.3619 830.307 37.4419 831.427 37.4419H871.127C872.247 37.4419 873.167 38.3619 873.167 39.4819V47.0319C873.167 48.1519 872.247 49.0719 871.127 49.0719Z" fill="white"/>
<path d="M883.497 73.2816H829.947C828.827 73.2816 827.907 72.3616 827.907 71.2416V70.2016C827.907 69.0816 828.827 68.1616 829.947 68.1616H883.497C884.617 68.1616 885.537 69.0816 885.537 70.2016V71.2416C885.537 72.3616 884.617 73.2816 883.497 73.2816Z" fill="white"/>
<path d="M906.167 86.2817H829.947C828.827 86.2817 827.907 85.3617 827.907 84.2417V83.2617C827.907 82.1417 828.827 81.2217 829.947 81.2217H906.167C907.287 81.2217 908.207 82.1417 908.207 83.2617V84.2417C908.217 85.3617 907.297 86.2817 906.167 86.2817Z" fill="white"/>
<path d="M906.167 98.6518H829.947C828.827 98.6518 827.907 97.7318 827.907 96.6118V95.6318C827.907 94.5118 828.827 93.5918 829.947 93.5918H906.167C907.287 93.5918 908.207 94.5118 908.207 95.6318V96.6118C908.217 97.7318 907.297 98.6518 906.167 98.6518Z" fill="white"/>
<path d="M889.817 261.542H873.367C869.157 261.542 865.707 258.092 865.707 253.882V237.432C865.707 233.222 869.157 229.772 873.367 229.772H889.817C894.027 229.772 897.477 233.222 897.477 237.432V253.882C897.477 258.092 894.027 261.542 889.817 261.542Z" fill="white"/>
<path d="M882.837 247.622H880.337C877.487 247.622 875.147 245.292 875.147 242.432V239.932C875.147 237.082 877.477 234.742 880.337 234.742H882.837C885.687 234.742 888.027 237.072 888.027 239.932V242.432C888.027 245.292 885.687 247.622 882.837 247.622Z" fill="#EE2E24"/>
<path d="M881.587 247.712C876.947 247.712 873.147 251.512 873.147 256.152H890.017C890.027 251.512 886.227 247.712 881.587 247.712Z" fill="#EE2E24"/>
<path d="M751.987 138.702H728.567C724.357 138.702 720.907 135.252 720.907 131.042V107.622C720.907 103.412 724.357 99.9619 728.567 99.9619H751.987C756.197 99.9619 759.647 103.412 759.647 107.622V131.042C759.647 135.262 756.207 138.702 751.987 138.702Z" fill="#FEE2E2"/>
</svg>
