<svg width="140" height="60" viewBox="0 0 140 60" fill="none" xmlns="http://www.w3.org/2000/svg">
<path d="M19.4 37.36H6.68L4.24 44H1.28L11.48 16.4H14.64L24.8 44H21.84L19.4 37.36ZM18.56 35.04L13.04 19.92L7.52 35.04H18.56ZM39.5338 21.76C42.1471 21.76 44.2804 22.5733 45.9338 24.2C47.5871 25.8 48.4138 28.1333 48.4138 31.2V44H45.6538V31.52C45.6538 29.1467 45.0538 27.3333 43.8538 26.08C42.6804 24.8267 41.0671 24.2 39.0138 24.2C36.9071 24.2 35.2271 24.8667 33.9738 26.2C32.7204 27.5333 32.0938 29.4933 32.0938 32.08V44H29.2938V22.16H32.0938V25.88C32.7871 24.5467 33.7871 23.5333 35.0938 22.84C36.4004 22.12 37.8804 21.76 39.5338 21.76ZM58.2463 24.52V38.08C58.2463 39.4133 58.4996 40.3333 59.0063 40.84C59.5129 41.3467 60.4063 41.6 61.6862 41.6H64.2463V44H61.2463C59.2729 44 57.8063 43.5467 56.8463 42.64C55.8863 41.7067 55.4063 40.1867 55.4063 38.08V24.52H52.3663V22.16H55.4063V16.68H58.2463V22.16H64.2463V24.52H58.2463ZM71.6641 26.04C72.2774 24.68 73.2107 23.6267 74.4641 22.88C75.7441 22.1333 77.3041 21.76 79.1441 21.76V24.68H78.3841C76.3574 24.68 74.7307 25.2267 73.5041 26.32C72.2774 27.4133 71.6641 29.24 71.6641 31.8V44H68.8641V22.16H71.6641V26.04ZM84.7563 18.04C84.1963 18.04 83.7163 17.84 83.3163 17.44C82.9163 17.04 82.7163 16.5467 82.7163 15.96C82.7163 15.3733 82.9163 14.8933 83.3163 14.52C83.7163 14.12 84.1963 13.92 84.7563 13.92C85.3163 13.92 85.7963 14.12 86.1963 14.52C86.5963 14.8933 86.7963 15.3733 86.7963 15.96C86.7963 16.5467 86.5963 17.04 86.1963 17.44C85.7963 17.84 85.3163 18.04 84.7563 18.04ZM86.1563 22.16V44H83.3563V22.16H86.1563ZM94.9769 44.32C93.7769 44.32 92.7902 43.9733 92.0169 43.28C91.2702 42.56 90.8969 41.68 90.8969 40.64C90.8969 39.5733 91.2702 38.68 92.0169 37.96C92.7902 37.24 93.7769 36.88 94.9769 36.88C96.1502 36.88 97.1102 37.24 97.8569 37.96C98.6302 38.68 99.0169 39.5733 99.0169 40.64C99.0169 41.68 98.6302 42.56 97.8569 43.28C97.1102 43.9733 96.1502 44.32 94.9769 44.32Z" fill="black"/>
<path d="M109.906 15.92V44H103.066V15.92H109.906ZM128.463 21.44C131.076 21.44 133.156 22.2933 134.703 24C136.276 25.68 137.063 28 137.063 30.96V44H130.263V31.88C130.263 30.3867 129.876 29.2267 129.103 28.4C128.329 27.5733 127.289 27.16 125.983 27.16C124.676 27.16 123.636 27.5733 122.863 28.4C122.089 29.2267 121.703 30.3867 121.703 31.88V44H114.863V21.68H121.703V24.64C122.396 23.6533 123.329 22.88 124.503 22.32C125.676 21.7333 126.996 21.44 128.463 21.44Z" fill="#EE2E24"/>
</svg>
