<svg width="561" height="335" viewBox="0 0 561 335" fill="none" xmlns="http://www.w3.org/2000/svg">
<g clip-path="url(#clip0_421_1329)">
<path d="M33.0558 256.998C16.5436 250.984 2.20993 236.597 0.391602 219.1C16.4214 229.512 35.613 233.912 54.5709 231.521C61.8789 230.572 69.9084 228.755 76.162 232.658C80.0533 235.086 82.469 239.398 83.5772 243.852C84.6854 248.307 84.6354 252.958 84.5788 257.548L85.093 258.572C67.8441 261.925 49.5681 263.012 33.0558 256.998Z" fill="#F0F0F0"/>
<path d="M0.749794 219.012C9.16443 230.889 21.1028 239.809 34.8692 244.506C37.8148 245.569 40.9095 246.162 44.0394 246.261C47.0914 246.258 50.0871 245.438 52.7152 243.884C55.1947 242.485 57.5692 240.766 60.3453 239.995C61.7722 239.621 63.2618 239.554 64.7166 239.797C66.1713 240.04 67.5583 240.588 68.7866 241.406C71.9 243.363 74.1254 246.323 76.2012 249.294C78.5059 252.593 80.8476 256.055 84.4453 258.058C84.8812 258.3 84.4797 258.963 84.0445 258.721C77.785 255.237 75.4674 247.847 70.1394 243.355C67.6533 241.258 64.5212 239.9 61.2356 240.577C58.3626 241.169 55.9125 242.939 53.4141 244.378C50.8725 245.931 47.9897 246.837 45.0175 247.018C41.8927 247.079 38.7804 246.607 35.8137 245.622C29.0995 243.513 22.7584 240.359 17.0226 236.277C10.4506 231.655 4.71681 225.941 0.0692487 219.383C-0.218236 218.977 0.464188 218.609 0.749794 219.012V219.012Z" fill="white"/>
<path d="M30.3476 243.255C29.247 245.46 27.3993 247.202 25.1343 248.17C22.8693 249.137 20.3346 249.267 17.9828 248.536C17.5074 248.386 17.7172 247.64 18.1932 247.79C20.3819 248.474 22.743 248.353 24.8503 247.448C26.9576 246.543 28.6724 244.913 29.685 242.853C29.9056 242.406 30.5669 242.81 30.3476 243.255V243.255Z" fill="white"/>
<path d="M51.5515 244.759C50.001 239.965 46.7024 235.931 42.3134 233.463C41.8784 233.219 42.2797 232.556 42.7143 232.8C47.2767 235.376 50.7009 239.581 52.3035 244.574C52.4559 245.05 51.7031 245.233 51.5515 244.759Z" fill="white"/>
<path d="M11.3262 231.118C11.9296 230.353 12.334 229.45 12.5029 228.491C12.6718 227.531 12.6 226.545 12.294 225.62C12.1356 225.146 12.8886 224.963 13.0459 225.434C13.3793 226.458 13.4573 227.548 13.273 228.608C13.0887 229.669 12.6478 230.668 11.9888 231.519C11.9334 231.604 11.8475 231.665 11.7488 231.69C11.65 231.714 11.5457 231.7 11.457 231.65C11.3696 231.596 11.3068 231.51 11.2823 231.411C11.2578 231.311 11.2735 231.206 11.3262 231.118V231.118Z" fill="white"/>
<path d="M42.0663 176.593C42.1736 176.886 42.2809 177.179 42.3944 177.474C43.8573 181.407 45.6369 185.214 47.7155 188.858C47.8718 189.142 48.0344 189.428 48.1985 189.707C53.3 198.433 59.9752 206.135 67.8849 212.422C71.0346 214.92 74.3696 217.175 77.8611 219.167C82.6831 221.918 88.13 224.516 91.6589 228.582C92.0318 229.002 92.3784 229.444 92.6966 229.907L86.3007 257.865C86.2543 257.921 86.2142 257.979 86.1678 258.036L85.9634 259.164C85.7761 259.073 85.5839 258.976 85.3966 258.886C85.2878 258.834 85.1804 258.776 85.0716 258.724C84.9995 258.687 84.9274 258.651 84.8602 258.622C84.8362 258.61 84.8122 258.597 84.7945 258.587C84.7274 258.558 84.6681 258.524 84.6073 258.497C83.5311 257.954 82.4569 257.404 81.3846 256.845C81.3782 256.843 81.3782 256.843 81.3732 256.835C73.1617 252.653 65.4748 247.51 58.4735 241.514C58.267 241.332 58.0541 241.149 57.8505 240.955C54.7708 238.216 51.9198 235.229 49.3261 232.025C47.9115 230.266 46.5868 228.436 45.357 226.543C42.1887 221.645 39.8097 216.278 38.307 210.64C35.3132 199.4 35.943 187.327 41.6247 177.351C41.7702 177.096 41.9144 176.847 42.0663 176.593Z" fill="#F0F0F0"/>
<path d="M42.406 176.737C41.9828 191.292 46.1509 205.611 54.3183 217.659C56.0306 220.284 58.1454 222.623 60.585 224.588C63.0232 226.426 65.9085 227.577 68.9411 227.921C71.7623 228.298 74.6917 228.357 77.3721 229.415C78.7361 229.977 79.9661 230.821 80.9815 231.892C81.9968 232.963 82.7745 234.237 83.2637 235.63C84.5727 239.069 84.5693 242.774 84.4402 246.398C84.2969 250.421 84.0843 254.597 85.7527 258.365C85.9549 258.821 85.2356 259.108 85.0337 258.653C82.131 252.098 84.7243 244.8 83.1718 238.001C82.4474 234.829 80.7636 231.856 77.733 230.416C75.0829 229.157 72.0621 229.094 69.2023 228.736C66.239 228.444 63.3922 227.43 60.9106 225.783C58.3789 223.948 56.1776 221.695 54.401 219.12C50.3087 213.389 47.1421 207.048 45.017 200.331C42.5492 192.679 41.4071 184.661 41.64 176.623C41.6546 176.125 42.4205 176.243 42.406 176.737L42.406 176.737Z" fill="white"/>
<path d="M51.4604 213.935C49.2554 215.032 46.7325 215.309 44.3422 214.717C41.952 214.124 39.8501 212.699 38.4119 210.698C38.1223 210.292 38.7388 209.822 39.0288 210.229C40.3646 212.095 42.3226 213.422 44.5495 213.969C46.7764 214.517 49.1255 214.249 51.1727 213.215C51.6178 212.991 51.903 213.712 51.4604 213.935Z" fill="white"/>
<path d="M67.4857 227.918C69.131 223.155 68.9228 217.946 66.9026 213.33C66.7021 212.872 67.4213 212.585 67.6216 213.042C69.7149 217.849 69.9206 223.27 68.1975 228.223C68.033 228.695 67.322 228.387 67.4857 227.918Z" fill="white"/>
<path d="M43.5714 192.778C44.513 192.531 45.3786 192.054 46.0906 191.39C46.8025 190.726 47.3385 189.894 47.6504 188.971C47.8089 188.498 48.5197 188.806 48.3622 189.277C48.0129 190.295 47.4198 191.212 46.6348 191.948C45.8499 192.684 44.8968 193.216 43.8591 193.498C43.7635 193.533 43.6583 193.53 43.5648 193.49C43.4713 193.449 43.3965 193.375 43.3557 193.282C43.3181 193.186 43.3197 193.08 43.3601 192.986C43.4004 192.891 43.4764 192.817 43.5714 192.778H43.5714Z" fill="white"/>
<path d="M532.835 256.42C548.484 248.42 560.943 232.378 560.599 214.79C545.969 227.096 527.463 233.824 508.355 233.784C500.986 233.742 492.795 232.927 487.068 237.57C483.504 240.459 481.636 245.035 481.083 249.592C480.53 254.15 481.151 258.759 481.77 263.307L481.386 264.387C498.915 265.591 517.186 264.421 532.835 256.42Z" fill="#F0F0F0"/>
<path d="M560.232 214.747C553.34 227.569 542.587 237.891 529.502 244.246C526.709 245.664 523.71 246.633 520.616 247.116C517.587 247.49 514.513 247.044 511.715 245.826C509.082 244.742 506.515 243.329 503.665 242.905C502.203 242.71 500.716 242.826 499.302 243.246C497.889 243.666 496.579 244.381 495.461 245.344C492.611 247.669 490.766 250.881 489.071 254.085C487.189 257.642 485.29 261.367 481.965 263.797C481.562 264.091 482.042 264.7 482.444 264.406C488.229 260.178 489.621 252.559 494.357 247.444C496.567 245.058 499.509 243.324 502.853 243.592C505.777 243.826 508.426 245.281 511.082 246.401C513.795 247.63 516.767 248.175 519.739 247.988C522.847 247.664 525.878 246.813 528.701 245.471C535.106 242.551 541.011 238.64 546.203 233.884C552.157 228.487 557.146 222.111 560.953 215.031C561.189 214.592 560.466 214.312 560.232 214.747Z" fill="white"/>
<path d="M533.835 242.448C535.198 244.501 537.246 246.003 539.612 246.684C541.979 247.366 544.51 247.182 546.755 246.168C547.208 245.961 546.908 245.246 546.454 245.453C544.366 246.402 542.008 246.572 539.806 245.933C537.603 245.294 535.701 243.888 534.444 241.968C534.17 241.551 533.563 242.034 533.835 242.448Z" fill="white"/>
<path d="M512.977 246.551C513.927 241.602 516.705 237.193 520.758 234.203C521.16 233.907 520.68 233.299 520.279 233.594C516.067 236.713 513.185 241.307 512.208 246.46C512.115 246.951 512.885 247.039 512.977 246.551H512.977Z" fill="white"/>
<path d="M551.223 228.062C550.53 227.378 550.018 226.532 549.733 225.6C549.447 224.668 549.397 223.68 549.587 222.725C549.686 222.235 548.917 222.147 548.818 222.633C548.613 223.69 548.67 224.781 548.983 225.811C549.296 226.841 549.856 227.779 550.614 228.542C550.68 228.62 550.773 228.67 550.874 228.682C550.975 228.694 551.076 228.667 551.158 228.607C551.239 228.543 551.29 228.45 551.302 228.348C551.314 228.246 551.286 228.143 551.223 228.062H551.223Z" fill="white"/>
<path d="M514.021 177.734C513.951 178.038 513.88 178.342 513.804 178.649C512.835 182.732 511.536 186.729 509.921 190.601C509.801 190.903 509.674 191.206 509.546 191.504C505.554 200.791 499.875 209.256 492.797 216.468C489.978 219.336 486.945 221.984 483.725 224.391C479.277 227.714 474.191 230.963 471.187 235.432C470.869 235.894 470.579 236.376 470.32 236.875L480.1 263.833C480.153 263.884 480.2 263.936 480.253 263.987L480.594 265.081C480.769 264.968 480.948 264.848 481.123 264.735C481.224 264.67 481.324 264.6 481.425 264.535C481.492 264.49 481.559 264.444 481.622 264.407C481.645 264.392 481.667 264.377 481.683 264.365C481.747 264.328 481.801 264.287 481.858 264.252C482.86 263.582 483.858 262.903 484.854 262.216C484.86 262.214 484.86 262.214 484.864 262.205C492.499 257.044 499.497 250.994 505.709 244.182C505.891 243.976 506.08 243.768 506.258 243.55C508.979 240.453 511.441 237.138 513.622 233.639C514.81 231.719 515.9 229.74 516.888 227.71C519.431 222.459 521.133 216.841 521.932 211.06C523.523 199.537 521.416 187.633 514.553 178.432C514.377 178.197 514.203 177.967 514.021 177.734Z" fill="#F0F0F0"/>
<path d="M513.702 177.919C515.909 192.312 513.53 207.035 506.904 219.997C505.527 222.813 503.715 225.394 501.535 227.645C499.341 229.769 496.619 231.266 493.652 231.98C490.898 232.702 487.998 233.121 485.468 234.5C484.183 235.226 483.066 236.215 482.19 237.403C481.314 238.59 480.698 239.95 480.384 241.393C479.507 244.968 479.965 248.644 480.538 252.224C481.175 256.199 481.898 260.318 480.705 264.262C480.56 264.74 481.31 264.936 481.454 264.459C483.53 257.597 480.06 250.674 480.766 243.735C481.096 240.498 482.402 237.34 485.233 235.538C487.708 233.963 490.698 233.528 493.492 232.821C496.397 232.167 499.098 230.81 501.359 228.87C503.646 226.737 505.554 224.231 507.001 221.457C510.359 215.265 512.723 208.583 514.007 201.656C515.517 193.758 515.666 185.659 514.448 177.711C514.372 177.219 513.627 177.43 513.702 177.919Z" fill="white"/>
<path d="M509.283 215.949C511.606 216.767 514.144 216.731 516.443 215.849C518.742 214.966 520.654 213.294 521.835 211.131C522.073 210.692 521.403 210.302 521.165 210.741C520.069 212.758 518.288 214.315 516.146 215.132C514.003 215.95 511.639 215.974 509.48 215.199C509.011 215.031 508.816 215.782 509.283 215.949Z" fill="white"/>
<path d="M495.096 231.798C492.878 227.274 492.446 222.079 493.884 217.249C494.027 216.77 493.277 216.574 493.135 217.051C491.648 222.08 492.109 227.486 494.427 232.189C494.648 232.637 495.316 232.244 495.096 231.798Z" fill="white"/>
<path d="M514.515 193.982C513.55 193.853 512.632 193.486 511.844 192.914C511.056 192.342 510.422 191.584 509.999 190.706C509.784 190.255 509.116 190.649 509.33 191.096C509.802 192.064 510.503 192.901 511.373 193.535C512.242 194.168 513.253 194.579 514.318 194.731C514.417 194.754 514.521 194.738 514.609 194.687C514.696 194.636 514.762 194.553 514.791 194.455C514.816 194.356 514.802 194.25 514.75 194.162C514.698 194.073 514.614 194.008 514.515 193.982V193.982Z" fill="white"/>
<path d="M488.671 11.5151H378.42V18.6162C378.419 18.9798 378.544 19.3326 378.773 19.6142C378.551 25.1645 378.42 32.2502 378.42 39.95V229.797C378.42 247.592 379.134 262.07 380.008 262.07H487.084C487.958 262.07 488.671 247.592 488.671 229.797V39.95C488.671 32.2502 488.541 25.1645 488.318 19.6142C488.548 19.3326 488.673 18.9797 488.671 18.6162L488.671 11.5151Z" fill="white"/>
<path d="M487.084 262.838H380.007C379.173 262.838 378.622 262.838 378.12 252.645C377.819 246.528 377.653 238.413 377.653 229.797V39.9501C377.653 32.5083 377.779 25.2753 378.007 19.5833C378.15 16.1659 378.313 13.4284 378.493 11.4459C378.845 7.56472 379.18 6.90912 380.007 6.90912H487.084C487.911 6.90912 488.246 7.56472 488.599 11.4459C488.779 13.4359 488.942 16.1734 489.084 19.5818L489.084 19.5833C489.312 25.2693 489.438 32.5023 489.438 39.9501V229.797C489.438 238.414 489.272 246.528 488.971 252.645C488.47 262.838 487.918 262.838 487.084 262.838ZM380.443 261.303H486.648C487.203 259.205 487.904 247.814 487.904 229.797V39.9501C487.904 32.5226 487.779 25.3121 487.552 19.6463H487.552C487.411 16.2622 487.249 13.5498 487.072 11.5845C487.003 10.5289 486.859 9.47954 486.641 8.44448H380.45C380.232 9.47954 380.088 10.5289 380.02 11.5845C379.842 13.5423 379.681 16.2547 379.539 19.6463C379.312 25.3169 379.187 32.5282 379.187 39.9501V229.797C379.187 247.814 379.888 259.205 380.443 261.303Z" fill="#E4E4E4"/>
<path d="M487.084 7.6767H380.007C379.587 7.67751 379.183 7.84518 378.886 8.14301C378.588 8.44084 378.421 8.84457 378.42 9.2658V18.6161C378.418 18.9797 378.543 19.3326 378.773 19.6141C378.922 19.7982 379.11 19.9468 379.324 20.049C379.537 20.1512 379.771 20.2046 380.007 20.2052H487.084C487.32 20.2046 487.554 20.1512 487.767 20.0489C487.981 19.9467 488.169 19.7982 488.318 19.6141C488.548 19.3326 488.672 18.9797 488.671 18.6161V9.2658C488.67 8.84461 488.502 8.44089 488.205 8.14305C487.907 7.84521 487.504 7.67752 487.084 7.6767Z" fill="#CACACA"/>
<path d="M387.636 15.7413C388.881 15.7413 389.89 14.7309 389.89 13.4846C389.89 12.2383 388.881 11.2279 387.636 11.2279C386.391 11.2279 385.382 12.2383 385.382 13.4846C385.382 14.7309 386.391 15.7413 387.636 15.7413Z" fill="white"/>
<path d="M396.191 15.7413C397.436 15.7413 398.445 14.7309 398.445 13.4846C398.445 12.2383 397.436 11.2279 396.191 11.2279C394.947 11.2279 393.938 12.2383 393.938 13.4846C393.938 14.7309 394.947 15.7413 396.191 15.7413Z" fill="white"/>
<path d="M404.747 15.7413C405.992 15.7413 407.001 14.7309 407.001 13.4846C407.001 12.2383 405.992 11.2279 404.747 11.2279C403.502 11.2279 402.493 12.2383 402.493 13.4846C402.493 14.7309 403.502 15.7413 404.747 15.7413Z" fill="white"/>
<path d="M478.703 10.4711H468.85C468.658 10.4724 468.473 10.5497 468.337 10.6862C468.201 10.8227 468.124 11.0074 468.122 11.2004C468.119 11.3103 468.146 11.419 468.199 11.5152C468.257 11.6388 468.35 11.7434 468.465 11.8167C468.58 11.8901 468.714 11.9293 468.85 11.9297H478.703C478.841 11.9304 478.976 11.8918 479.093 11.8184C479.21 11.745 479.304 11.6398 479.363 11.5152C479.41 11.417 479.434 11.3093 479.432 11.2004C479.432 11.1046 479.413 11.0098 479.376 10.9212C479.34 10.8327 479.286 10.7523 479.219 10.6846C479.151 10.6168 479.071 10.5631 478.982 10.5265C478.894 10.4899 478.799 10.4711 478.703 10.4711Z" fill="white"/>
<path d="M478.703 13.2117H468.85C468.657 13.2117 468.472 13.2886 468.335 13.4253C468.199 13.5621 468.122 13.7476 468.122 13.941C468.122 14.1344 468.199 14.3199 468.335 14.4567C468.472 14.5935 468.657 14.6703 468.85 14.6703H478.703C478.896 14.6703 479.082 14.5935 479.218 14.4567C479.355 14.3199 479.432 14.1344 479.432 13.941C479.432 13.7476 479.355 13.5621 479.218 13.4253C479.082 13.2886 478.896 13.2117 478.703 13.2117Z" fill="white"/>
<path d="M478.703 15.9523H468.85C468.657 15.9523 468.472 16.0292 468.335 16.1659C468.199 16.3027 468.122 16.4882 468.122 16.6816C468.122 16.875 468.199 17.0605 468.335 17.1973C468.472 17.3341 468.657 17.4109 468.85 17.4109H478.703C478.896 17.4109 479.082 17.3341 479.218 17.1973C479.355 17.0605 479.432 16.875 479.432 16.6816C479.432 16.4882 479.355 16.3027 479.218 16.1659C479.082 16.0292 478.896 15.9523 478.703 15.9523Z" fill="white"/>
<path d="M444.199 40.7023H423.927C422.91 40.7027 421.935 41.1073 421.216 41.827C420.497 42.5468 420.093 43.5228 420.093 44.5407V62.1206C420.094 63.1381 420.499 64.1134 421.218 64.8329C421.936 65.5524 422.91 65.9573 423.927 65.959H444.199C445.215 65.956 446.188 65.5507 446.907 64.8315C447.625 64.1123 448.03 63.1377 448.033 62.1206V44.5407C448.031 43.5232 447.627 42.5479 446.908 41.8284C446.19 41.109 445.215 40.704 444.199 40.7023Z" fill="#EF4444"/>
<path d="M469.387 77.4434H398.731C398.27 77.4434 397.827 77.627 397.501 77.9538C397.174 78.2806 396.991 78.7239 396.991 79.186C396.991 79.6482 397.174 80.0915 397.501 80.4183C397.827 80.7451 398.27 80.9287 398.731 80.9287H469.387C469.849 80.9287 470.291 80.7451 470.618 80.4183C470.944 80.0915 471.128 79.6482 471.128 79.186C471.128 78.7239 470.944 78.2806 470.618 77.9538C470.291 77.627 469.849 77.4434 469.387 77.4434Z" fill="#E4E4E4"/>
<path d="M425.567 85.6116H398.731C398.27 85.6116 397.827 85.7952 397.501 86.122C397.174 86.4488 396.991 86.892 396.991 87.3542C396.991 87.8164 397.174 88.2596 397.501 88.5865C397.827 88.9133 398.27 89.0968 398.731 89.0968H425.567C426.029 89.0968 426.472 88.9133 426.798 88.5865C427.125 88.2596 427.308 87.8164 427.308 87.3542C427.308 86.892 427.125 86.4488 426.798 86.122C426.472 85.7952 426.029 85.6116 425.567 85.6116Z" fill="#E4E4E4"/>
<path d="M444.199 116.703H423.927C422.91 116.703 421.935 117.108 421.216 117.827C420.497 118.547 420.093 119.523 420.093 120.541V138.121C420.094 139.138 420.499 140.114 421.218 140.833C421.936 141.553 422.91 141.958 423.927 141.959H444.199C445.215 141.956 446.188 141.551 446.907 140.832C447.625 140.113 448.03 139.138 448.033 138.121V120.541C448.031 119.523 447.627 118.548 446.908 117.829C446.19 117.109 445.215 116.704 444.199 116.703Z" fill="#EF4444"/>
<path d="M469.387 153.444H398.731C398.27 153.444 397.827 153.627 397.501 153.954C397.174 154.281 396.991 154.724 396.991 155.186C396.991 155.649 397.174 156.092 397.501 156.419C397.827 156.745 398.27 156.929 398.731 156.929H469.387C469.849 156.929 470.291 156.745 470.618 156.419C470.944 156.092 471.128 155.649 471.128 155.186C471.128 154.724 470.944 154.281 470.618 153.954C470.291 153.627 469.849 153.444 469.387 153.444Z" fill="#E4E4E4"/>
<path d="M425.567 161.612H398.731C398.27 161.612 397.827 161.795 397.501 162.122C397.174 162.449 396.991 162.892 396.991 163.355C396.991 163.817 397.174 164.26 397.501 164.587C397.827 164.914 398.27 165.097 398.731 165.097H425.567C426.029 165.097 426.472 164.914 426.798 164.587C427.125 164.26 427.308 163.817 427.308 163.355C427.308 162.892 427.125 162.449 426.798 162.122C426.472 161.795 426.029 161.612 425.567 161.612Z" fill="#E4E4E4"/>
<path d="M444.199 192.703H423.927C422.91 192.703 421.935 193.108 421.216 193.828C420.497 194.547 420.093 195.523 420.093 196.541V214.121C420.094 215.139 420.499 216.114 421.218 216.833C421.936 217.553 422.91 217.958 423.927 217.96H444.199C445.215 217.957 446.188 217.551 446.907 216.832C447.625 216.113 448.03 215.138 448.033 214.121V196.541C448.031 195.524 447.627 194.548 446.908 193.829C446.19 193.11 445.215 192.705 444.199 192.703Z" fill="#EF4444"/>
<path d="M469.387 229.444H398.731C398.27 229.444 397.827 229.628 397.501 229.954C397.174 230.281 396.991 230.724 396.991 231.187C396.991 231.649 397.174 232.092 397.501 232.419C397.827 232.746 398.27 232.929 398.731 232.929H469.387C469.849 232.929 470.291 232.746 470.618 232.419C470.944 232.092 471.128 231.649 471.128 231.187C471.128 230.724 470.944 230.281 470.618 229.954C470.291 229.628 469.849 229.444 469.387 229.444Z" fill="#E4E4E4"/>
<path d="M425.567 237.612H398.731C398.27 237.612 397.827 237.796 397.501 238.123C397.174 238.449 396.991 238.893 396.991 239.355C396.991 239.817 397.174 240.26 397.501 240.587C397.827 240.914 398.27 241.097 398.731 241.097H425.567C426.029 241.097 426.472 240.914 426.798 240.587C427.125 240.26 427.308 239.817 427.308 239.355C427.308 238.893 427.125 238.449 426.798 238.123C426.472 237.796 426.029 237.612 425.567 237.612Z" fill="#E4E4E4"/>
<path d="M348.356 2.35668C348.355 1.93549 348.188 1.53178 347.89 1.23394C347.593 0.936104 347.19 0.768406 346.769 0.767578H63.3408C62.9201 0.768392 62.5169 0.936065 62.2194 1.2339C61.9218 1.53173 61.7543 1.93545 61.7534 2.35668V11.707C61.7521 12.0963 61.8972 12.4718 62.16 12.7587C61.9069 19.1075 61.7534 27.4752 61.7534 36.6413V247.684C61.7534 267.475 62.4666 283.565 63.3408 283.565H346.769C347.643 283.565 348.356 267.475 348.356 247.684V36.6413C348.356 27.4752 348.203 19.1075 347.95 12.7587C348.213 12.4718 348.358 12.0963 348.356 11.707V2.35668Z" fill="white"/>
<path d="M346.769 284.333H63.3405C62.4741 284.333 61.951 284.333 61.4529 273.08C61.152 266.283 60.9863 257.263 60.9863 247.684V36.6413C60.9863 27.8073 61.1309 19.3149 61.3936 12.7281C61.8976 -5.07855e-05 62.4716 -6.10352e-05 63.3405 -6.10352e-05H346.769C347.638 -6.10352e-05 348.212 0.00219828 348.716 12.7281C348.978 19.3089 349.123 27.8014 349.123 36.6413V247.684C349.123 257.264 348.957 266.283 348.656 273.08C348.158 284.333 347.635 284.333 346.769 284.333ZM63.7881 282.798H346.321C346.948 280.391 347.589 266.876 347.589 247.684V36.6413C347.589 27.8212 347.445 19.3501 347.183 12.7896V12.7892C346.864 4.72598 346.491 2.27224 346.313 1.5353H63.7964C63.6181 2.27227 63.2452 4.72598 62.9258 12.7892C62.664 19.3565 62.5198 27.8272 62.5198 36.6413V247.684C62.5198 266.876 63.1605 280.391 63.7881 282.798Z" fill="#E4E4E4"/>
<path d="M346.769 0.767578H63.3408C62.9201 0.768392 62.5169 0.936065 62.2194 1.2339C61.9218 1.53173 61.7543 1.93545 61.7534 2.35668V11.707C61.7521 12.0963 61.8972 12.4718 62.16 12.7587C62.3073 12.9272 62.4889 13.0623 62.6925 13.155C62.8961 13.2476 63.1171 13.2958 63.3408 13.2961H346.769C346.993 13.2958 347.214 13.2476 347.417 13.155C347.621 13.0623 347.803 12.9272 347.95 12.7587C348.213 12.4718 348.358 12.0963 348.356 11.707V2.35668C348.355 1.9355 348.188 1.5318 347.89 1.23397C347.593 0.936129 347.19 0.768422 346.769 0.767578Z" fill="#CACACA"/>
<path d="M70.9693 8.8321C72.2141 8.8321 73.2232 7.82175 73.2232 6.57541C73.2232 5.32908 72.2141 4.31873 70.9693 4.31873C69.7245 4.31873 68.7153 5.32908 68.7153 6.57541C68.7153 7.82175 69.7245 8.8321 70.9693 8.8321Z" fill="white"/>
<path d="M79.5245 8.8321C80.7693 8.8321 81.7784 7.82175 81.7784 6.57541C81.7784 5.32908 80.7693 4.31873 79.5245 4.31873C78.2796 4.31873 77.2705 5.32908 77.2705 6.57541C77.2705 7.82175 78.2796 8.8321 79.5245 8.8321Z" fill="white"/>
<path d="M88.0801 8.8321C89.3249 8.8321 90.3341 7.82175 90.3341 6.57541C90.3341 5.32908 89.3249 4.31873 88.0801 4.31873C86.8353 4.31873 85.8262 5.32908 85.8262 6.57541C85.8262 7.82175 86.8353 8.8321 88.0801 8.8321Z" fill="white"/>
<path d="M338.388 3.56201H328.536C328.342 3.56201 328.157 3.63884 328.02 3.77561C327.884 3.91238 327.807 4.09788 327.807 4.29131C327.807 4.48473 327.884 4.67023 328.02 4.807C328.157 4.94377 328.342 5.02061 328.536 5.02061H338.388C338.582 5.02061 338.767 4.94377 338.903 4.807C339.04 4.67023 339.117 4.48473 339.117 4.29131C339.117 4.09788 339.04 3.91238 338.903 3.77561C338.767 3.63884 338.582 3.56201 338.388 3.56201Z" fill="white"/>
<path d="M338.388 6.30261H328.536C328.342 6.30261 328.157 6.37945 328.02 6.51621C327.884 6.65298 327.807 6.83848 327.807 7.03191C327.807 7.22533 327.884 7.41083 328.02 7.5476C328.157 7.68437 328.342 7.7612 328.536 7.7612H338.388C338.582 7.7612 338.767 7.68437 338.903 7.5476C339.04 7.41083 339.117 7.22533 339.117 7.03191C339.117 6.83848 339.04 6.65298 338.903 6.51621C338.767 6.37945 338.582 6.30261 338.388 6.30261Z" fill="white"/>
<path d="M338.388 9.04321H328.536C328.342 9.04321 328.157 9.12006 328.02 9.25683C327.884 9.3936 327.807 9.57908 327.807 9.77251C327.807 9.96593 327.884 10.1514 328.02 10.2882C328.157 10.425 328.342 10.5018 328.536 10.5018H338.388C338.582 10.5018 338.767 10.425 338.903 10.2882C339.04 10.1514 339.117 9.96593 339.117 9.77251C339.117 9.57908 339.04 9.3936 338.903 9.25683C338.767 9.12006 338.582 9.04321 338.388 9.04321Z" fill="white"/>
<path d="M154.952 47.6115H121.782C120.119 47.6135 118.525 48.2758 117.349 49.453C116.174 50.6302 115.512 52.2263 115.51 53.8911V82.656C115.512 84.3209 116.174 85.9169 117.349 87.0941C118.525 88.2713 120.119 88.9336 121.782 88.9357H154.952C156.615 88.9336 158.209 88.2713 159.384 87.0941C160.56 85.9169 161.222 84.3209 161.223 82.656V53.8911C161.222 52.2263 160.56 50.6302 159.384 49.453C158.209 48.2758 156.615 47.6135 154.952 47.6115Z" fill="#EF4444"/>
<path d="M291.762 58.7351H176.152C175.397 58.7351 174.672 59.0356 174.138 59.5704C173.604 60.1053 173.304 60.8307 173.304 61.587C173.304 62.3434 173.604 63.0688 174.138 63.6037C174.672 64.1385 175.397 64.439 176.152 64.439H291.762C292.518 64.439 293.242 64.1385 293.776 63.6037C294.311 63.0688 294.611 62.3434 294.611 61.587C294.611 60.8307 294.311 60.1053 293.776 59.5704C293.242 59.0356 292.518 58.7351 291.762 58.7351Z" fill="#E4E4E4"/>
<path d="M220.064 72.1003H176.152C175.397 72.1003 174.672 72.4008 174.138 72.9357C173.604 73.4705 173.304 74.1959 173.304 74.9523C173.304 75.7086 173.604 76.434 174.138 76.9689C174.672 77.5037 175.397 77.8042 176.152 77.8042H220.064C220.819 77.8042 221.544 77.5037 222.078 76.9689C222.612 76.434 222.912 75.7086 222.912 74.9523C222.912 74.1959 222.612 73.4705 222.078 72.9357C221.544 72.4008 220.819 72.1003 220.064 72.1003Z" fill="#E4E4E4"/>
<path d="M154.952 124.379H121.782C120.119 124.381 118.525 125.044 117.349 126.221C116.174 127.398 115.512 128.994 115.51 130.659V159.424C115.512 161.089 116.174 162.685 117.349 163.862C118.525 165.039 120.119 165.702 121.782 165.704H154.952C156.615 165.702 158.209 165.039 159.384 163.862C160.56 162.685 161.222 161.089 161.223 159.424V130.659C161.222 128.994 160.56 127.398 159.384 126.221C158.209 125.044 156.615 124.381 154.952 124.379Z" fill="#EF4444"/>
<path d="M291.762 135.503H176.152C175.397 135.503 174.672 135.804 174.138 136.338C173.604 136.873 173.304 137.599 173.304 138.355C173.304 139.111 173.604 139.837 174.138 140.372C174.672 140.906 175.397 141.207 176.152 141.207H291.762C292.518 141.207 293.242 140.906 293.776 140.372C294.311 139.837 294.611 139.111 294.611 138.355C294.611 137.599 294.311 136.873 293.776 136.338C293.242 135.804 292.518 135.503 291.762 135.503Z" fill="#E4E4E4"/>
<path d="M220.064 148.868H176.152C175.397 148.868 174.672 149.169 174.138 149.704C173.604 150.239 173.304 150.964 173.304 151.72C173.304 152.477 173.604 153.202 174.138 153.737C174.672 154.272 175.397 154.572 176.152 154.572H220.064C220.819 154.572 221.544 154.272 222.078 153.737C222.612 153.202 222.912 152.477 222.912 151.72C222.912 150.964 222.612 150.239 222.078 149.704C221.544 149.169 220.819 148.868 220.064 148.868Z" fill="#E4E4E4"/>
<path d="M154.952 201.147H121.782C120.119 201.149 118.525 201.812 117.349 202.989C116.174 204.166 115.512 205.762 115.51 207.427V236.192C115.512 237.857 116.174 239.453 117.349 240.63C118.525 241.807 120.119 242.47 121.782 242.472H154.952C156.615 242.47 158.209 241.807 159.384 240.63C160.56 239.453 161.222 237.857 161.223 236.192V207.427C161.222 205.762 160.56 204.166 159.384 202.989C158.209 201.812 156.615 201.149 154.952 201.147Z" fill="#EF4444"/>
<path d="M291.762 212.271H176.152C175.397 212.271 174.672 212.572 174.138 213.106C173.604 213.641 173.304 214.367 173.304 215.123C173.304 215.879 173.604 216.605 174.138 217.14C174.672 217.675 175.397 217.975 176.152 217.975H291.762C292.518 217.975 293.242 217.675 293.776 217.14C294.311 216.605 294.611 215.879 294.611 215.123C294.611 214.367 294.311 213.641 293.776 213.106C293.242 212.572 292.518 212.271 291.762 212.271Z" fill="#E4E4E4"/>
<path d="M220.064 225.636H176.152C175.397 225.636 174.672 225.937 174.138 226.472C173.604 227.006 173.304 227.732 173.304 228.488C173.304 229.245 173.604 229.97 174.138 230.505C174.672 231.04 175.397 231.34 176.152 231.34H220.064C220.819 231.34 221.544 231.04 222.078 230.505C222.612 229.97 222.912 229.245 222.912 228.488C222.912 227.732 222.612 227.006 222.078 226.472C221.544 225.937 220.819 225.636 220.064 225.636Z" fill="#E4E4E4"/>
<path d="M397.377 334.232H207.492C206.617 334.232 205.905 320.76 205.905 304.198V127.529C205.905 110.967 206.617 97.4947 207.492 97.4947H397.377C398.252 97.4947 398.964 110.967 398.964 127.529V304.198C398.964 320.76 398.252 334.232 397.377 334.232Z" fill="white"/>
<path d="M397.376 335H207.492C206.689 335 206.108 335 205.604 325.467C205.303 319.774 205.138 312.221 205.138 304.198V127.529C205.138 119.506 205.303 111.953 205.604 106.261C206.108 96.7269 206.689 96.7269 207.492 96.7269H397.376C398.18 96.7269 398.76 96.7269 399.264 106.261C399.565 111.953 399.731 119.506 399.731 127.529V304.198C399.731 312.221 399.565 319.774 399.264 325.467C398.76 335 398.18 335 397.376 335ZM207.916 333.465H396.952C397.502 331.476 398.197 320.879 398.197 304.198V127.529C398.197 110.848 397.502 100.251 396.952 98.2623H207.916C207.366 100.251 206.671 110.848 206.671 127.529V304.198C206.671 320.879 207.366 331.476 207.916 333.465Z" fill="#E4E4E4"/>
<path d="M397.377 110.024H207.492C207.071 110.023 206.668 109.855 206.37 109.557C206.073 109.259 205.905 108.855 205.905 108.434V99.0842C205.905 98.6628 206.073 98.2587 206.37 97.9608C206.668 97.6628 207.071 97.4952 207.492 97.4947H397.377C397.797 97.4952 398.201 97.6628 398.499 97.9608C398.796 98.2587 398.964 98.6628 398.964 99.0842V108.434C398.964 108.855 398.796 109.259 398.499 109.557C398.201 109.855 397.797 110.023 397.377 110.024Z" fill="#CACACA"/>
<path d="M215.118 105.56C216.363 105.56 217.372 104.549 217.372 103.303C217.372 102.057 216.363 101.046 215.118 101.046C213.873 101.046 212.864 102.057 212.864 103.303C212.864 104.549 213.873 105.56 215.118 105.56Z" fill="white"/>
<path d="M223.673 105.56C224.918 105.56 225.927 104.549 225.927 103.303C225.927 102.057 224.918 101.046 223.673 101.046C222.429 101.046 221.419 102.057 221.419 103.303C221.419 104.549 222.429 105.56 223.673 105.56Z" fill="white"/>
<path d="M232.229 105.56C233.474 105.56 234.483 104.549 234.483 103.303C234.483 102.057 233.474 101.046 232.229 101.046C230.984 101.046 229.975 102.057 229.975 103.303C229.975 104.549 230.984 105.56 232.229 105.56Z" fill="white"/>
<path d="M388.994 101.75H379.142C378.949 101.75 378.763 101.673 378.626 101.536C378.489 101.399 378.413 101.213 378.413 101.019C378.413 100.825 378.489 100.64 378.626 100.503C378.763 100.366 378.949 100.289 379.142 100.289H388.994C389.187 100.289 389.372 100.366 389.508 100.503C389.645 100.64 389.721 100.826 389.721 101.019C389.721 101.213 389.645 101.398 389.508 101.535C389.372 101.672 389.187 101.749 388.994 101.75Z" fill="white"/>
<path d="M388.994 104.49H379.142C378.949 104.49 378.763 104.413 378.626 104.276C378.489 104.139 378.413 103.953 378.413 103.759C378.413 103.565 378.489 103.38 378.626 103.243C378.763 103.105 378.949 103.029 379.142 103.029H388.994C389.188 103.029 389.373 103.105 389.51 103.243C389.647 103.38 389.724 103.565 389.724 103.759C389.724 103.953 389.647 104.139 389.51 104.276C389.373 104.413 389.188 104.49 388.994 104.49Z" fill="white"/>
<path d="M388.994 107.23H379.142C378.949 107.23 378.763 107.153 378.626 107.016C378.489 106.879 378.413 106.693 378.413 106.499C378.413 106.305 378.489 106.119 378.626 105.982C378.763 105.845 378.949 105.768 379.142 105.768H388.994C389.187 105.769 389.372 105.846 389.508 105.983C389.645 106.12 389.721 106.306 389.721 106.499C389.721 106.692 389.645 106.878 389.508 107.015C389.372 107.152 389.187 107.229 388.994 107.23Z" fill="white"/>
<path d="M265.842 168.058H241.618C240.403 168.056 239.239 167.573 238.38 166.713C237.521 165.853 237.038 164.687 237.037 163.471V142.465C237.038 141.249 237.521 140.083 238.38 139.223C239.239 138.364 240.403 137.88 241.618 137.879H265.842C267.056 137.88 268.221 138.364 269.079 139.223C269.938 140.083 270.421 141.249 270.423 142.465V163.471C270.421 164.687 269.938 165.853 269.079 166.713C268.221 167.573 267.056 168.056 265.842 168.058Z" fill="#EF4444"/>
<path d="M365.752 150.17H281.325C280.774 150.17 280.245 149.951 279.855 149.56C279.465 149.17 279.246 148.64 279.246 148.088C279.246 147.536 279.465 147.006 279.855 146.616C280.245 146.225 280.774 146.006 281.325 146.006H365.752C366.304 146.006 366.833 146.225 367.223 146.616C367.613 147.006 367.832 147.536 367.832 148.088C367.832 148.64 367.613 149.17 367.223 149.56C366.833 149.951 366.304 150.17 365.752 150.17Z" fill="#E4E4E4"/>
<path d="M313.392 159.931H281.325C280.774 159.931 280.245 159.711 279.855 159.321C279.465 158.93 279.246 158.401 279.246 157.848C279.246 157.296 279.465 156.766 279.855 156.376C280.245 155.985 280.774 155.766 281.325 155.766H313.392C313.665 155.765 313.936 155.819 314.189 155.923C314.442 156.028 314.672 156.181 314.865 156.374C315.059 156.568 315.212 156.798 315.317 157.051C315.422 157.303 315.476 157.575 315.476 157.848C315.476 158.122 315.422 158.393 315.317 158.646C315.212 158.899 315.059 159.129 314.865 159.322C314.672 159.516 314.442 159.669 314.189 159.773C313.936 159.878 313.665 159.931 313.392 159.931Z" fill="#E4E4E4"/>
<path d="M265.842 230.24H241.618C240.403 230.238 239.239 229.755 238.38 228.895C237.521 228.035 237.038 226.869 237.037 225.653V204.647C237.038 203.431 237.521 202.265 238.38 201.405C239.239 200.546 240.403 200.062 241.618 200.061H265.842C267.056 200.062 268.221 200.546 269.079 201.405C269.938 202.265 270.421 203.431 270.423 204.647V225.653C270.421 226.869 269.938 228.035 269.079 228.895C268.221 229.755 267.056 230.238 265.842 230.24Z" fill="#EF4444"/>
<path d="M365.752 212.352H281.325C280.774 212.352 280.245 212.133 279.855 211.742C279.465 211.352 279.246 210.822 279.246 210.27C279.246 209.718 279.465 209.188 279.855 208.798C280.245 208.407 280.774 208.188 281.325 208.188H365.752C366.304 208.188 366.833 208.407 367.223 208.798C367.613 209.188 367.832 209.718 367.832 210.27C367.832 210.822 367.613 211.352 367.223 211.742C366.833 212.133 366.304 212.352 365.752 212.352Z" fill="#E4E4E4"/>
<path d="M313.392 222.113H281.325C280.774 222.113 280.245 221.893 279.855 221.503C279.465 221.112 279.246 220.583 279.246 220.03C279.246 219.478 279.465 218.948 279.855 218.558C280.245 218.167 280.774 217.948 281.325 217.948H313.392C313.665 217.948 313.936 218.001 314.189 218.105C314.442 218.21 314.672 218.363 314.865 218.557C315.059 218.75 315.212 218.98 315.317 219.233C315.422 219.485 315.476 219.757 315.476 220.03C315.476 220.304 315.422 220.575 315.317 220.828C315.212 221.081 315.059 221.311 314.865 221.504C314.672 221.698 314.442 221.851 314.189 221.955C313.936 222.06 313.665 222.113 313.392 222.113Z" fill="#E4E4E4"/>
<path d="M265.842 292.422H241.618C240.403 292.42 239.239 291.937 238.38 291.077C237.521 290.217 237.038 289.051 237.037 287.835V266.829C237.038 265.613 237.521 264.447 238.38 263.588C239.239 262.728 240.403 262.244 241.618 262.243H265.842C267.056 262.244 268.221 262.728 269.079 263.588C269.938 264.447 270.421 265.613 270.423 266.829V287.835C270.421 289.051 269.938 290.217 269.079 291.077C268.221 291.937 267.056 292.42 265.842 292.422Z" fill="#EF4444"/>
<path d="M365.752 274.534H281.325C280.774 274.534 280.245 274.315 279.855 273.925C279.465 273.534 279.246 273.004 279.246 272.452C279.246 271.9 279.465 271.37 279.855 270.98C280.245 270.589 280.774 270.37 281.325 270.37H365.752C366.304 270.37 366.833 270.589 367.223 270.98C367.613 271.37 367.832 271.9 367.832 272.452C367.832 273.004 367.613 273.534 367.223 273.925C366.833 274.315 366.304 274.534 365.752 274.534Z" fill="#E4E4E4"/>
<path d="M313.392 284.295H281.325C280.774 284.295 280.245 284.075 279.855 283.685C279.465 283.294 279.246 282.765 279.246 282.212C279.246 281.66 279.465 281.131 279.855 280.74C280.245 280.349 280.774 280.13 281.325 280.13H313.392C313.665 280.13 313.936 280.183 314.189 280.287C314.442 280.392 314.672 280.545 314.865 280.739C315.059 280.932 315.212 281.162 315.317 281.415C315.422 281.668 315.476 281.939 315.476 282.212C315.476 282.486 315.422 282.757 315.317 283.01C315.212 283.263 315.059 283.493 314.865 283.686C314.672 283.88 314.442 284.033 314.189 284.137C313.936 284.242 313.665 284.295 313.392 284.295Z" fill="#E4E4E4"/>
</g>
<defs>
<clipPath id="clip0_421_1329">
<rect width="561" height="335" fill="white"/>
</clipPath>
</defs>
</svg>
