<svg width="239" height="255" viewBox="0 0 239 255" fill="none" xmlns="http://www.w3.org/2000/svg">
<path d="M129.327 91.7481C128.849 91.3965 128.393 91.0164 127.96 90.6099L128.552 89.9814C128.959 90.3641 129.389 90.7219 129.839 91.053L129.327 91.7481Z" fill="#E4E4E4"/>
<path d="M125.586 87.7106C124.924 86.6458 124.403 85.4998 124.035 84.3012L124.86 84.0478C125.206 85.1752 125.697 86.2532 126.319 87.2549L125.586 87.7106ZM123.401 80.6105C123.392 80.4065 123.388 80.2023 123.388 79.9978C123.388 78.9492 123.501 77.9036 123.726 76.8792L124.569 77.0641C124.358 78.0278 124.251 79.0114 124.251 79.9978C124.251 80.1901 124.255 80.3823 124.263 80.5742L123.401 80.6105ZM125.762 73.7501L124.995 73.3551C125.351 72.6634 125.762 72.001 126.223 71.3742C126.506 70.9897 126.812 70.6226 127.139 70.2748L127.768 70.8659C127.465 71.1886 127.181 71.5291 126.919 71.8857C126.485 72.4756 126.098 73.099 125.762 73.7501H125.762ZM130.538 68.7433L130.13 67.9825C131.244 67.3857 132.447 66.9726 133.693 66.759L133.839 67.6098C132.685 67.8075 131.57 68.1903 130.538 68.7433H130.538ZM140.651 68.649C139.61 68.1132 138.488 67.7504 137.331 67.5749L137.46 66.7217C138.71 66.9112 139.921 67.3029 141.046 67.8815L140.651 68.649Z" fill="#E4E4E4"/>
<path d="M144.413 72.0644C144.131 71.5947 143.803 71.1532 143.437 70.7459L144.078 70.168C144.482 70.6164 144.842 71.1025 145.153 71.6197L144.413 72.0644Z" fill="#E4E4E4"/>
<path d="M111.321 62.8825L110.626 62.3711C110.971 61.9017 111.335 61.4374 111.708 60.9912L112.37 61.5444C112.009 61.9771 111.656 62.4273 111.321 62.8825Z" fill="#E4E4E4"/>
<path d="M154.089 61.8849C153.426 60.9645 152.691 60.0978 151.892 59.2928L152.504 58.6846C153.336 59.5218 154.1 60.4233 154.79 61.3806L154.089 61.8849ZM114.719 59.066L114.131 58.4341C114.992 57.6336 115.902 56.8881 116.857 56.202L117.36 56.903C116.435 57.5678 115.553 58.2902 114.719 59.066ZM149.315 57.0758C148.397 56.4019 147.438 55.7855 146.443 55.2302L146.864 54.4764C147.889 55.0492 148.879 55.685 149.826 56.3802L149.315 57.0758ZM120.253 55.091L119.842 54.3321C120.875 53.7727 121.943 53.2787 123.038 52.8529L123.351 53.6573C122.289 54.07 121.255 54.5488 120.253 55.091V55.091ZM143.364 53.7587C142.308 53.3338 141.225 52.976 140.124 52.6873L140.343 51.8523C141.479 52.1503 142.596 52.5196 143.686 52.958L143.364 53.7587ZM126.604 52.6227L126.394 51.7854C127.534 51.5004 128.691 51.2864 129.857 51.1448L129.961 52.0017C128.83 52.139 127.709 52.3463 126.604 52.6226V52.6227ZM136.775 52.0327C135.645 51.8854 134.508 51.8088 133.369 51.8035L133.373 50.9404C134.548 50.946 135.721 51.025 136.886 51.1769L136.775 52.0327Z" fill="#E4E4E4"/>
<path d="M156.553 66.3357C156.341 65.8151 156.105 65.297 155.854 64.7959L156.625 64.4082C156.887 64.9295 157.132 65.4683 157.353 66.0095L156.553 66.3357Z" fill="#E4E4E4"/>
<path d="M116.657 110.145C116.206 109.778 115.76 109.395 115.331 109.007L115.909 108.366C116.328 108.745 116.763 109.118 117.203 109.477L116.657 110.145Z" fill="#E4E4E4"/>
<path d="M92.7603 23.1205L92.3169 22.3799C92.8126 22.0832 93.3179 21.7895 93.8188 21.5068L94.2431 22.2584C93.7486 22.5375 93.2497 22.8275 92.7603 23.1205Z" fill="#E4E4E4"/>
<path d="M175.857 34.9081C175.118 34.0467 174.339 33.197 173.544 32.3829L174.161 31.7797C174.97 32.6071 175.761 33.4705 176.512 34.3459L175.857 34.9081ZM171.073 30.0111C170.229 29.2518 169.349 28.5082 168.455 27.8013L168.991 27.1245C169.899 27.8428 170.793 28.5981 171.65 29.3696L171.073 30.0111ZM165.704 25.756C164.77 25.1005 163.81 24.4615 162.849 23.8569L163.309 23.1264C164.282 23.7387 165.255 24.3858 166.2 25.0497L165.704 25.756ZM159.901 22.1055C158.909 21.5495 157.889 21.0116 156.868 20.5067L157.251 19.7333C158.285 20.2445 159.318 20.7894 160.323 21.3526L159.901 22.1055ZM97.2738 20.6499L96.8887 19.8775C97.9211 19.363 98.9807 18.8685 100.038 18.4077L100.383 19.1989C99.3391 19.6538 98.293 20.1419 97.2738 20.6499L97.2738 20.6499ZM153.757 19.066C152.712 18.6142 151.642 18.1839 150.575 17.7871L150.877 16.9782C151.957 17.3803 153.041 17.8162 154.099 18.2737L153.757 19.066ZM103.562 17.9092L103.258 17.1014C104.336 16.6959 105.441 16.3122 106.541 15.9613L106.803 16.7837C105.717 17.1301 104.627 17.5088 103.562 17.9092L103.562 17.9092ZM147.332 16.6737C146.247 16.3323 145.138 16.0145 144.035 15.7292L144.251 14.8937C145.368 15.1826 146.492 15.5046 147.591 15.8505L147.332 16.6737ZM110.098 15.825L109.878 14.9903C110.992 14.6969 112.129 14.4277 113.259 14.1906L113.437 15.0351C112.321 15.2694 111.197 15.5352 110.098 15.825L110.098 15.825ZM140.694 14.9556C139.58 14.7276 138.444 14.5255 137.317 14.3548L137.446 13.5015C138.588 13.6743 139.739 13.8791 140.867 14.1099L140.694 14.9556ZM116.811 14.4166L116.677 13.5639C117.816 13.3851 118.975 13.2329 120.123 13.1118L120.213 13.9701C119.08 14.0898 117.935 14.24 116.811 14.4166V14.4166ZM133.914 13.9281C132.782 13.8155 131.631 13.7308 130.493 13.6761L130.534 12.8141C131.687 12.8694 132.853 12.9552 133.999 13.0693L133.914 13.9281ZM123.633 13.6975L123.587 12.8358C124.739 12.7733 125.908 12.7398 127.06 12.7363L127.063 13.5994C125.925 13.6029 124.771 13.636 123.633 13.6975L123.633 13.6975Z" fill="#E4E4E4"/>
<path d="M179.023 38.9792C178.696 38.5135 178.358 38.0477 178.017 37.5948L178.707 37.0762C179.053 37.5365 179.397 38.0099 179.73 38.4833L179.023 38.9792Z" fill="#E4E4E4"/>
<path d="M139.715 178.554C139.143 178.48 138.571 178.402 137.999 178.319L138.123 177.465C138.69 177.547 139.258 177.625 139.825 177.698L139.715 178.554Z" fill="#E4E4E4"/>
<path d="M15.8177 56.3422C15.7865 56.6244 15.7543 56.9107 15.7129 57.1991C15.6017 57.9824 15.4504 58.7595 15.2597 59.5273C14.4506 62.8006 12.9174 65.8507 10.7729 68.4528C10.9464 68.6777 11.12 68.9026 11.2965 69.1326C13.585 66.4033 15.2194 63.1872 16.075 59.7299C16.2785 58.9102 16.4386 58.0803 16.5545 57.2437C16.5949 56.9595 16.6271 56.6732 16.6542 56.39C16.8912 54.0554 16.7722 51.6983 16.3013 49.3994C16.0335 49.519 15.7708 49.6354 15.5132 49.7489C15.9389 51.9197 16.0415 54.1414 15.8177 56.3422Z" fill="white"/>
<path d="M29.9716 57.6831C29.918 57.9684 29.8563 58.2517 29.7864 58.5329C29.7692 58.6195 29.7469 58.7092 29.7256 58.7948C28.8443 62.3404 27.1186 65.6204 24.6955 68.3551C22.2725 71.0898 19.2241 73.198 15.8101 74.5002C16.01 74.723 16.21 74.9458 16.4151 75.1655C19.8848 73.7863 22.976 71.6003 25.4325 68.7886C27.889 65.9769 29.6401 62.6205 30.5409 58.9974C30.5693 58.8833 30.5976 58.7692 30.6219 58.654C30.6888 58.3677 30.7505 58.0844 30.8082 57.8001C31.6671 53.3927 31.2381 48.8313 29.5728 44.6611C29.2998 44.7318 29.0269 44.8025 28.7529 44.8772C30.3968 48.9363 30.8203 53.3868 29.9716 57.6831V57.6831Z" fill="white"/>
<path d="M30.3589 196.013L33.5913 196.502L37.0142 184.268L32.7767 183.547L30.3589 196.013Z" fill="#A0616A"/>
<path d="M134.505 177.752C133.35 177.544 132.182 177.314 131.033 177.068L131.215 176.224C132.354 176.468 133.512 176.697 134.658 176.902L134.505 177.752ZM127.587 176.268C126.445 175.983 125.295 175.675 124.169 175.353L124.406 174.523C125.524 174.842 126.664 175.148 127.796 175.431L127.587 176.268ZM120.784 174.322C119.665 173.961 118.538 173.576 117.436 173.179L117.729 172.367C118.822 172.761 119.939 173.143 121.049 173.501L120.784 174.322ZM114.128 171.923C113.039 171.489 111.941 171.029 110.865 170.557L111.211 169.767C112.279 170.235 113.368 170.691 114.448 171.122L114.128 171.923ZM107.649 169.082C106.59 168.574 105.525 168.042 104.485 167.499L104.884 166.734C105.916 167.272 106.972 167.8 108.022 168.303L107.649 169.082ZM101.375 165.812C100.357 165.237 99.3301 164.634 98.3243 164.022L98.7735 163.285C99.7711 163.892 100.789 164.49 101.8 165.06L101.375 165.812ZM95.3346 162.131C94.3535 161.487 93.3692 160.818 92.4089 160.142L92.9058 159.437C93.8583 160.107 94.8348 160.771 95.808 161.409L95.3346 162.131ZM89.5488 158.055C88.6102 157.343 87.676 156.603 86.7721 155.856L87.3219 155.191C88.2167 155.93 89.1416 156.662 90.0707 157.368L89.5488 158.055ZM84.0886 153.544C83.2138 152.758 82.3441 151.943 81.5036 151.122L82.1068 150.505C82.9388 151.318 83.7997 152.124 84.6656 152.902L84.0886 153.544ZM79.0221 148.594C78.2161 147.738 77.4176 146.853 76.6488 145.965L77.3017 145.4C78.0626 146.28 78.8529 147.155 79.6506 148.003L79.0221 148.594ZM74.3883 143.237C73.6569 142.316 72.9357 141.367 72.2446 140.417L72.9428 139.909C73.6267 140.85 74.3406 141.789 75.0644 142.7L74.3883 143.237Z" fill="#E4E4E4"/>
<path d="M70.212 137.493C69.8917 137.011 69.5767 136.526 69.2671 136.039L69.9957 135.576C70.3022 136.059 70.614 136.538 70.931 137.015L70.212 137.493Z" fill="#E4E4E4"/>
<path d="M34.6371 44.1967L41.6545 57.0255L29.7935 45.2685C16.3132 48.859 3.40967 57.0035 3.40967 57.0035C3.40967 57.0035 19.1489 84.4648 35.8549 88.6164C52.5608 92.768 60.8623 84.2875 63.9073 72.038C66.9522 59.7886 63.5875 48.4089 46.8816 44.2572C43.1632 43.3332 38.9462 43.4536 34.6371 44.1967Z" fill="#F2F2F2"/>
<path d="M41.5072 59.8395L42.3307 60.0442C51.8903 62.4718 58.9573 65.9418 63.4287 70.4158C63.495 70.4799 63.5563 70.547 63.6226 70.6111L63.3184 70.912L63.0223 71.1976C58.217 66.2729 50.4994 63.035 42.1617 60.9154C41.8937 60.8444 41.6216 60.7725 41.3475 60.7087C37.81 59.8426 34.1812 59.1701 30.6219 58.6534C30.3467 58.611 30.0665 58.5717 29.7863 58.5324C25.0847 57.8746 20.5342 57.4795 16.5545 57.2435C16.2733 57.2256 15.9911 57.2117 15.7129 57.1988C8.97517 56.8271 4.00462 56.9205 2.90233 56.9495C2.76785 56.9507 2.69349 56.9539 2.67617 56.9539L2.66236 56.5393L2.65929 56.5342L2.64648 56.1156C2.66382 56.1156 2.91341 56.104 3.37388 56.0973C5.09659 56.0623 9.76055 56.0182 15.8177 56.342C16.0908 56.358 16.373 56.3718 16.6542 56.3898C19.884 56.5779 23.4736 56.8684 27.205 57.3196C28.1425 57.4314 29.0646 57.5524 29.9716 57.6826C30.2528 57.7178 30.533 57.7572 30.8081 57.7996C34.6559 58.3576 38.2222 59.0376 41.5072 59.8395Z" fill="white"/>
<path d="M41.5073 59.8401C41.4609 60.1315 41.4062 60.4209 41.3475 60.7092C41.2838 61.018 41.2159 61.3257 41.1399 61.6314C39.9501 66.3944 37.2494 70.6439 33.442 73.7438C29.6346 76.8436 24.9254 78.6269 20.0195 78.8268C20.3042 79.0923 20.5847 79.3567 20.8713 79.6141C25.8087 79.2422 30.5033 77.3241 34.2882 74.1323C38.0731 70.9405 40.7558 66.6373 41.9553 61.834C42.0313 61.5283 42.1032 61.2216 42.1619 60.9159C42.2256 60.6245 42.2803 60.3351 42.3308 60.0448C43.3124 54.1696 42.0245 48.141 38.7276 43.1797C38.4047 43.1903 38.0828 43.2142 37.7568 43.237C41.1187 48.0732 42.464 54.0287 41.5073 59.8401V59.8401Z" fill="white"/>
<path d="M54.2899 125.706L51.6606 123.029L54.8844 118.101L60.4022 108.917C60.2219 108.521 60.166 108.08 60.2419 107.652C60.3177 107.224 60.5217 106.829 60.827 106.52C61.1322 106.21 61.5243 106 61.9513 105.918C62.3783 105.836 62.8202 105.886 63.2184 106.061C63.6166 106.235 63.9525 106.526 64.1815 106.896C64.4105 107.266 64.5219 107.696 64.501 108.13C64.4801 108.564 64.3278 108.982 64.0643 109.328C63.8008 109.674 63.4385 109.932 63.0254 110.067L58.4709 119.871L54.2899 125.706Z" fill="#A0616A"/>
<path d="M51.377 131.818C51.0683 132.296 50.6284 132.675 50.11 132.909C49.5916 133.144 49.0165 133.224 48.4536 133.141C47.9178 133.078 47.4121 132.86 46.9986 132.513C46.5851 132.166 46.2818 131.707 46.126 131.19C46.0112 130.824 45.9778 130.436 46.0281 130.056C46.0783 129.675 46.2111 129.31 46.417 128.985C48.1759 126.021 51.4199 122.105 51.4524 122.066L51.5041 122.004L56.9755 123.189L51.377 131.818Z" fill="#EF4444"/>
<path d="M98.185 24.9601L97.5415 25.1582L92.1144 7.53291C91.2813 4.82743 89.4075 2.56365 86.9051 1.23957C84.4027 -0.0845065 81.4768 -0.360416 78.7709 0.472542H78.7709L41.4245 11.9692C40.0847 12.3816 38.8393 13.0539 37.7593 13.9476C36.6794 14.8413 35.786 15.9389 35.1303 17.1778C34.4746 18.4167 34.0694 19.7726 33.9378 21.1681C33.8062 22.5636 33.9507 23.9713 34.3632 25.3109V25.311L64.137 122.005C64.97 124.71 66.8439 126.974 69.3463 128.298C71.8486 129.622 74.7746 129.898 77.4804 129.065H77.4804L114.827 117.568C117.533 116.735 119.797 114.862 121.121 112.36C122.445 109.858 122.721 106.932 121.888 104.227V104.227L101.405 37.7042L102.048 37.5061L98.185 24.9601Z" fill="#3F3D56"/>
<path d="M79.9997 3.00035L75.1247 4.50105C75.5181 4.9816 75.7873 5.5515 75.9085 6.16057C76.0298 6.76963 75.9993 7.39916 75.8199 7.99369C75.6405 8.58823 75.3176 9.12952 74.8797 9.56989C74.4418 10.0103 73.9022 10.3362 73.3087 10.519L51.9134 17.1053C51.3198 17.2879 50.6903 17.3219 50.0805 17.204C49.4707 17.0862 48.8993 16.8202 48.4165 16.4295C47.9337 16.0388 47.5544 15.5354 47.312 14.9637C47.0697 14.3919 46.9716 13.7693 47.0266 13.1507L42.4734 14.5524C40.4527 15.1744 38.7619 16.5736 37.773 18.4421C36.7841 20.3106 36.578 22.4954 37.2001 24.5158L66.9302 121.068C67.5523 123.088 68.9517 124.779 70.8204 125.768C72.6892 126.756 74.8742 126.962 76.8949 126.34H76.8949L114.421 114.788C116.442 114.166 118.133 112.767 119.122 110.899C120.111 109.03 120.317 106.845 119.695 104.825V104.825L89.9644 8.27294C89.3423 6.25252 87.9429 4.56195 86.0742 3.57315C84.2054 2.58435 82.0204 2.37831 79.9997 3.00035Z" fill="white"/>
<path d="M91.8667 76.9877C99.3334 69.5219 99.3334 57.4175 91.8667 49.9518C84.4 42.486 72.294 42.486 64.8273 49.9518C57.3606 57.4175 57.3606 69.5219 64.8273 76.9877C72.294 84.4534 84.4 84.4534 91.8667 76.9877Z" fill="#EF4444"/>
<path d="M80.3489 72.5932L70.8853 66.1741L71.7116 64.9568L79.5464 70.2715L85.209 52.5596L86.6097 53.0072L80.3489 72.5932Z" fill="white"/>
<path d="M55.8141 197.427H59.0833L60.6385 184.819L55.8135 184.82L55.8141 197.427Z" fill="#A0616A"/>
<path d="M54.98 196.361L61.4181 196.36H61.4184C62.5065 196.36 63.5501 196.793 64.3195 197.562C65.0889 198.331 65.5212 199.375 65.5213 200.463V200.596L54.9802 200.596L54.98 196.361Z" fill="#2F2E41"/>
<path d="M29.6941 194.833L36.06 195.795L36.0602 195.795C37.1361 195.958 38.1033 196.541 38.7491 197.417C39.3948 198.293 39.6663 199.389 39.5037 200.465L39.4838 200.596L29.061 199.021L29.6941 194.833Z" fill="#2F2E41"/>
<path d="M49.2937 137.991L56.8959 136.335L61.1598 148.522L61.2932 195.581L55.0876 195.542L52.4935 157.454L35.9609 192.648L29.2944 191.848L43.8272 154.121C43.8272 154.121 43.0272 147.456 45.5605 144.123L45.0272 140.657L49.2937 137.991Z" fill="#2F2E41"/>
<path d="M42.1568 129.029C41.984 128.51 41.9657 127.952 42.104 127.423C42.2423 126.894 42.5313 126.416 42.936 126.048L44.5429 124.587L49.0731 123.824L51.9057 123.31L58.6222 140.075L45.401 141.58C44.4306 141.37 44.0429 140.84 44.6076 139.784L42.1568 129.029Z" fill="#EF4444"/>
<path d="M58.1649 126.253L57.7866 122.521L63.3845 120.689L73.4332 116.971C73.5398 116.549 73.772 116.17 74.0988 115.884C74.4257 115.597 74.8319 115.416 75.2638 115.365C75.6956 115.314 76.1327 115.396 76.5172 115.599C76.9017 115.802 77.2156 116.117 77.4172 116.502C77.6189 116.887 77.6988 117.324 77.6465 117.756C77.5942 118.188 77.412 118.593 77.1242 118.919C76.8363 119.245 76.4563 119.476 76.0344 119.581C75.6125 119.686 75.1686 119.661 74.7615 119.508L65.0765 124.313L58.1649 126.253Z" fill="#A0616A"/>
<path d="M52.0706 129.202C51.5308 129.382 50.9506 129.403 50.3992 129.262C49.8479 129.121 49.3488 128.824 48.9616 128.407C48.5831 128.023 48.3251 127.536 48.2191 127.007C48.1131 126.479 48.1637 125.93 48.3649 125.43C48.5045 125.072 48.7205 124.749 48.9979 124.483C49.2752 124.217 49.6072 124.015 49.9707 123.891C53.1971 122.676 58.1772 121.649 58.227 121.638L58.3062 121.622L61.8353 125.967L52.0706 129.202Z" fill="#EF4444"/>
<path d="M47.0847 122.22C49.8311 122.22 52.0575 119.994 52.0575 117.248C52.0575 114.502 49.8311 112.275 47.0847 112.275C44.3382 112.275 42.1118 114.502 42.1118 117.248C42.1118 119.994 44.3382 122.22 47.0847 122.22Z" fill="#A0616A"/>
<path d="M43.0591 124.331C42.288 124.331 41.5175 124.284 40.7521 124.19L40.6471 124.178L39.8461 119.829C39.5064 117.986 39.8852 116.083 40.9047 114.51C41.9242 112.937 43.5072 111.814 45.3286 111.372C45.4502 111.341 45.5779 111.344 45.6976 111.381C45.8174 111.419 45.9246 111.488 46.0075 111.582L46.1986 111.515C46.93 111.26 47.7045 111.152 48.4778 111.196C49.2511 111.24 50.0082 111.437 50.7057 111.773C51.4033 112.11 52.0276 112.581 52.5431 113.159C53.0587 113.737 53.4553 114.411 53.7103 115.142L53.7576 115.278L52.4828 115.723C52.0856 115.861 51.7242 116.087 51.425 116.382C51.1258 116.678 50.8963 117.037 50.7532 117.432C50.61 117.828 50.5569 118.25 50.5976 118.669C50.6382 119.087 50.7717 119.492 50.9884 119.852L52.2918 122.022L52.153 122.092C49.3397 123.542 46.2243 124.309 43.0591 124.331V124.331Z" fill="#2F2E41"/>
<path d="M109.915 201.068H0.287736C0.211424 201.068 0.138237 201.037 0.0842758 200.983C0.0303148 200.929 0 200.856 0 200.78C0 200.704 0.0303148 200.63 0.0842758 200.576C0.138237 200.523 0.211424 200.492 0.287736 200.492H109.915C109.992 200.492 110.065 200.523 110.119 200.576C110.173 200.63 110.203 200.704 110.203 200.78C110.203 200.856 110.173 200.929 110.119 200.983C110.065 201.037 109.992 201.068 109.915 201.068Z" fill="#CACACA"/>
<path d="M134.505 177.752C133.35 177.544 132.182 177.314 131.033 177.068L131.215 176.224C132.354 176.468 133.512 176.697 134.658 176.902L134.505 177.752ZM127.587 176.268C126.445 175.983 125.295 175.675 124.169 175.353L124.406 174.523C125.524 174.842 126.664 175.148 127.796 175.431L127.587 176.268ZM120.784 174.322C119.665 173.961 118.538 173.576 117.436 173.179L117.729 172.367C118.822 172.761 119.939 173.143 121.049 173.501L120.784 174.322ZM114.128 171.923C113.039 171.489 111.941 171.029 110.865 170.557L111.211 169.767C112.279 170.235 113.368 170.691 114.448 171.122L114.128 171.923ZM107.649 169.082C106.59 168.574 105.525 168.042 104.485 167.499L104.884 166.734C105.916 167.272 106.972 167.8 108.022 168.303L107.649 169.082ZM101.375 165.812C100.357 165.237 99.3301 164.634 98.3243 164.022L98.7735 163.285C99.7711 163.892 100.789 164.49 101.8 165.06L101.375 165.812ZM95.3346 162.131C94.3535 161.487 93.3692 160.818 92.4089 160.142L92.9058 159.437C93.8583 160.107 94.8348 160.771 95.808 161.409L95.3346 162.131ZM89.5488 158.055C88.6102 157.343 87.676 156.603 86.7721 155.856L87.3219 155.191C88.2167 155.93 89.1416 156.662 90.0707 157.368L89.5488 158.055ZM84.0886 153.544C83.2138 152.758 82.3441 151.943 81.5036 151.122L82.1068 150.505C82.9388 151.318 83.7997 152.124 84.6656 152.902L84.0886 153.544ZM79.0221 148.594C78.2161 147.738 77.4176 146.853 76.6488 145.965L77.3017 145.4C78.0626 146.28 78.8529 147.155 79.6506 148.003L79.0221 148.594ZM74.3883 143.237C73.6569 142.316 72.9357 141.367 72.2446 140.417L72.9428 139.909C73.6267 140.85 74.3406 141.789 75.0644 142.7L74.3883 143.237Z" fill="#E4E4E4"/>
<path d="M70.212 137.493C69.8917 137.011 69.5767 136.526 69.2671 136.039L69.9957 135.576C70.3022 136.059 70.614 136.538 70.931 137.015L70.212 137.493Z" fill="#E4E4E4"/>
<path d="M34.6371 44.1967L41.6545 57.0255L29.7935 45.2685C16.3132 48.859 3.40967 57.0035 3.40967 57.0035C3.40967 57.0035 19.1489 84.4648 35.8549 88.6164C52.5608 92.768 60.8623 84.2875 63.9073 72.038C66.9522 59.7886 63.5875 48.4089 46.8816 44.2572C43.1632 43.3332 38.9462 43.4536 34.6371 44.1967Z" fill="#F2F2F2"/>
<path d="M41.5072 59.8395L42.3307 60.0442C51.8903 62.4718 58.9573 65.9418 63.4287 70.4158C63.495 70.4799 63.5563 70.547 63.6226 70.6111L63.3184 70.912L63.0223 71.1976C58.217 66.2729 50.4994 63.035 42.1617 60.9154C41.8937 60.8444 41.6216 60.7725 41.3475 60.7087C37.81 59.8426 34.1812 59.1701 30.6219 58.6534C30.3467 58.611 30.0665 58.5717 29.7863 58.5324C25.0847 57.8746 20.5342 57.4795 16.5545 57.2435C16.2733 57.2256 15.9911 57.2117 15.7129 57.1988C8.97517 56.8271 4.00462 56.9205 2.90233 56.9495C2.76785 56.9507 2.69349 56.9539 2.67617 56.9539L2.66236 56.5393L2.65929 56.5342L2.64648 56.1156C2.66382 56.1156 2.91341 56.104 3.37388 56.0973C5.09659 56.0623 9.76055 56.0182 15.8177 56.342C16.0908 56.358 16.373 56.3718 16.6542 56.3898C19.884 56.5779 23.4736 56.8684 27.205 57.3196C28.1425 57.4314 29.0646 57.5524 29.9716 57.6826C30.2528 57.7178 30.533 57.7572 30.8081 57.7996C34.6559 58.3576 38.2222 59.0376 41.5072 59.8395Z" fill="white"/>
<path d="M41.5073 59.8401C41.4609 60.1315 41.4062 60.4209 41.3475 60.7092C41.2838 61.018 41.2159 61.3257 41.1399 61.6314C39.9501 66.3944 37.2494 70.6439 33.442 73.7438C29.6346 76.8436 24.9254 78.6269 20.0195 78.8268C20.3042 79.0923 20.5847 79.3567 20.8713 79.6141C25.8087 79.2422 30.5033 77.3241 34.2882 74.1323C38.0731 70.9405 40.7558 66.6373 41.9553 61.834C42.0313 61.5283 42.1032 61.2216 42.1619 60.9159C42.2256 60.6245 42.2803 60.3351 42.3308 60.0448C43.3124 54.1696 42.0245 48.141 38.7276 43.1797C38.4047 43.1903 38.0828 43.2142 37.7568 43.237C41.1187 48.0732 42.464 54.0287 41.5073 59.8401V59.8401Z" fill="white"/>
<path d="M54.2899 125.706L51.6606 123.029L54.8844 118.101L60.4022 108.917C60.2219 108.521 60.166 108.08 60.2419 107.652C60.3177 107.224 60.5217 106.829 60.827 106.52C61.1322 106.21 61.5243 106 61.9513 105.918C62.3783 105.836 62.8202 105.886 63.2184 106.061C63.6166 106.235 63.9525 106.526 64.1815 106.896C64.4105 107.266 64.5219 107.696 64.501 108.13C64.4801 108.564 64.3278 108.982 64.0643 109.328C63.8008 109.674 63.4385 109.932 63.0254 110.067L58.4709 119.871L54.2899 125.706Z" fill="#A0616A"/>
<path d="M51.377 131.818C51.0683 132.296 50.6284 132.675 50.11 132.909C49.5916 133.144 49.0165 133.224 48.4536 133.141C47.9178 133.078 47.4121 132.86 46.9986 132.513C46.5851 132.166 46.2818 131.707 46.126 131.19C46.0112 130.824 45.9778 130.436 46.0281 130.056C46.0783 129.675 46.2111 129.31 46.417 128.985C48.1759 126.021 51.4199 122.105 51.4524 122.066L51.5041 122.004L56.9755 123.189L51.377 131.818Z" fill="#EF4444"/>
<path d="M98.185 24.9601L97.5415 25.1582L92.1144 7.53291C91.2813 4.82743 89.4075 2.56365 86.9051 1.23957C84.4027 -0.0845065 81.4768 -0.360416 78.7709 0.472542H78.7709L41.4245 11.9692C40.0847 12.3816 38.8393 13.0539 37.7593 13.9476C36.6794 14.8413 35.786 15.9389 35.1303 17.1778C34.4746 18.4167 34.0694 19.7726 33.9378 21.1681C33.8062 22.5636 33.9507 23.9713 34.3632 25.3109V25.311L64.137 122.005C64.97 124.71 66.8439 126.974 69.3463 128.298C71.8486 129.622 74.7746 129.898 77.4804 129.065H77.4804L114.827 117.568C117.533 116.735 119.797 114.862 121.121 112.36C122.445 109.858 122.721 106.932 121.888 104.227V104.227L101.405 37.7042L102.048 37.5061L98.185 24.9601Z" fill="#3F3D56"/>
<path d="M79.9997 3.00035L75.1247 4.50105C75.5181 4.9816 75.7873 5.5515 75.9085 6.16057C76.0298 6.76963 75.9993 7.39916 75.8199 7.99369C75.6405 8.58823 75.3176 9.12952 74.8797 9.56989C74.4418 10.0103 73.9022 10.3362 73.3087 10.519L51.9134 17.1053C51.3198 17.2879 50.6903 17.3219 50.0805 17.204C49.4707 17.0862 48.8993 16.8202 48.4165 16.4295C47.9337 16.0388 47.5544 15.5354 47.312 14.9637C47.0697 14.3919 46.9716 13.7693 47.0266 13.1507L42.4734 14.5524C40.4527 15.1744 38.7619 16.5736 37.773 18.4421C36.7841 20.3106 36.578 22.4954 37.2001 24.5158L66.9302 121.068C67.5523 123.088 68.9517 124.779 70.8204 125.768C72.6892 126.756 74.8742 126.962 76.8949 126.34H76.8949L114.421 114.788C116.442 114.166 118.133 112.767 119.122 110.899C120.111 109.03 120.317 106.845 119.695 104.825V104.825L89.9644 8.27294C89.3423 6.25252 87.9429 4.56195 86.0742 3.57315C84.2054 2.58435 82.0204 2.37831 79.9997 3.00035Z" fill="white"/>
<path d="M91.8667 76.9877C99.3334 69.5219 99.3334 57.4175 91.8667 49.9518C84.4 42.486 72.294 42.486 64.8273 49.9518C57.3606 57.4175 57.3606 69.5219 64.8273 76.9877C72.294 84.4534 84.4 84.4534 91.8667 76.9877Z" fill="#EF4444"/>
<path d="M80.3489 72.5932L70.8853 66.1741L71.7116 64.9568L79.5464 70.2715L85.209 52.5596L86.6097 53.0072L80.3489 72.5932Z" fill="white"/>
<path d="M55.8141 197.427H59.0833L60.6385 184.819L55.8135 184.82L55.8141 197.427Z" fill="#A0616A"/>
<path d="M54.98 196.361L61.4181 196.36H61.4184C62.5065 196.36 63.5501 196.793 64.3195 197.562C65.0889 198.331 65.5212 199.375 65.5213 200.463V200.596L54.9802 200.596L54.98 196.361Z" fill="#2F2E41"/>
<path d="M29.6941 194.833L36.06 195.795L36.0602 195.795C37.1361 195.958 38.1033 196.541 38.7491 197.417C39.3948 198.293 39.6663 199.389 39.5037 200.465L39.4838 200.596L29.061 199.021L29.6941 194.833Z" fill="#2F2E41"/>
<path d="M49.2937 137.991L56.8959 136.335L61.1598 148.522L61.2932 195.581L55.0876 195.542L52.4935 157.454L35.9609 192.648L29.2944 191.848L43.8272 154.121C43.8272 154.121 43.0272 147.456 45.5605 144.123L45.0272 140.657L49.2937 137.991Z" fill="#2F2E41"/>
<path d="M42.1568 129.029C41.984 128.51 41.9657 127.952 42.104 127.423C42.2423 126.894 42.5313 126.416 42.936 126.048L44.5429 124.587L49.0731 123.824L51.9057 123.31L58.6222 140.075L45.401 141.58C44.4306 141.37 44.0429 140.84 44.6076 139.784L42.1568 129.029Z" fill="#EF4444"/>
<path d="M58.1649 126.253L57.7866 122.521L63.3845 120.689L73.4332 116.971C73.5398 116.549 73.772 116.17 74.0988 115.884C74.4257 115.597 74.8319 115.416 75.2638 115.365C75.6956 115.314 76.1327 115.396 76.5172 115.599C76.9017 115.802 77.2156 116.117 77.4172 116.502C77.6189 116.887 77.6988 117.324 77.6465 117.756C77.5942 118.188 77.412 118.593 77.1242 118.919C76.8363 119.245 76.4563 119.476 76.0344 119.581C75.6125 119.686 75.1686 119.661 74.7615 119.508L65.0765 124.313L58.1649 126.253Z" fill="#A0616A"/>
<path d="M52.0706 129.202C51.5308 129.382 50.9506 129.403 50.3992 129.262C49.8479 129.121 49.3488 128.824 48.9616 128.407C48.5831 128.023 48.3251 127.536 48.2191 127.007C48.1131 126.479 48.1637 125.93 48.3649 125.43C48.5045 125.072 48.7205 124.749 48.9979 124.483C49.2752 124.217 49.6072 124.015 49.9707 123.891C53.1971 122.676 58.1772 121.649 58.227 121.638L58.3062 121.622L61.8353 125.967L52.0706 129.202Z" fill="#EF4444"/>
<path d="M47.0847 122.22C49.8311 122.22 52.0575 119.994 52.0575 117.248C52.0575 114.502 49.8311 112.275 47.0847 112.275C44.3382 112.275 42.1118 114.502 42.1118 117.248C42.1118 119.994 44.3382 122.22 47.0847 122.22Z" fill="#A0616A"/>
<path d="M43.0591 124.331C42.288 124.331 41.5175 124.284 40.7521 124.19L40.6471 124.178L39.8461 119.829C39.5064 117.986 39.8852 116.083 40.9047 114.51C41.9242 112.937 43.5072 111.814 45.3286 111.372C45.4502 111.341 45.5779 111.344 45.6976 111.381C45.8174 111.419 45.9246 111.488 46.0075 111.582L46.1986 111.515C46.93 111.26 47.7045 111.152 48.4778 111.196C49.2511 111.24 50.0082 111.437 50.7057 111.773C51.4033 112.11 52.0276 112.581 52.5431 113.159C53.0587 113.737 53.4553 114.411 53.7103 115.142L53.7576 115.278L52.4828 115.723C52.0856 115.861 51.7242 116.087 51.425 116.382C51.1258 116.678 50.8963 117.037 50.7532 117.432C50.61 117.828 50.5569 118.25 50.5976 118.669C50.6382 119.087 50.7717 119.492 50.9884 119.852L52.2918 122.022L52.153 122.092C49.3397 123.542 46.2243 124.309 43.0591 124.331V124.331Z" fill="#2F2E41"/>
<path d="M109.915 201.068H0.287736C0.211424 201.068 0.138237 201.037 0.0842758 200.983C0.0303148 200.929 0 200.856 0 200.78C0 200.704 0.0303148 200.63 0.0842758 200.576C0.138237 200.523 0.211424 200.492 0.287736 200.492H109.915C109.992 200.492 110.065 200.523 110.119 200.576C110.173 200.63 110.203 200.704 110.203 200.78C110.203 200.856 110.173 200.929 110.119 200.983C110.065 201.037 109.992 201.068 109.915 201.068Z" fill="#CACACA"/>
<path d="M172.132 61.1263C171.851 61.1641 171.565 61.2019 171.275 61.2313C170.488 61.3124 169.698 61.353 168.906 61.3532C165.534 61.3576 162.204 60.6056 159.161 59.1523C158.984 59.3749 158.808 59.5975 158.627 59.8243C161.828 61.3867 165.344 62.1969 168.906 62.1932C169.751 62.1929 170.595 62.1481 171.435 62.0588C171.721 62.0294 172.006 61.9915 172.288 61.9496C174.611 61.6164 176.87 60.9324 178.988 59.9209C178.807 59.6899 178.631 59.4631 178.458 59.2405C176.454 60.1772 174.322 60.8126 172.132 61.1263V61.1263Z" fill="white"/>
<path d="M174.245 75.1843C173.955 75.2011 173.666 75.2095 173.376 75.2095C173.287 75.2137 173.195 75.2137 173.107 75.2137C169.453 75.2137 165.853 74.3303 162.614 72.6388C159.376 70.9472 156.594 68.4977 154.507 65.499C154.339 65.7468 154.171 65.9946 154.007 66.2466C156.182 69.2808 159.05 71.753 162.371 73.4584C165.693 75.1639 169.373 76.0536 173.107 76.0537C173.224 76.0537 173.342 76.0537 173.46 76.0495C173.754 76.0453 174.044 76.0369 174.333 76.0243C178.818 75.7946 183.142 74.2781 186.788 71.6563C186.654 71.4085 186.519 71.1607 186.381 70.9129C182.837 73.487 178.62 74.9715 174.245 75.1843V75.1843Z" fill="white"/>
<path d="M174.934 86.8979C174.64 86.9231 174.346 86.9399 174.052 86.9525C173.737 86.9651 173.422 86.9735 173.107 86.9735C168.197 86.9678 163.421 85.3722 159.493 82.4253C155.566 79.4785 152.7 75.3392 151.322 70.627C151.133 70.9672 150.944 71.3032 150.764 71.6434C152.316 76.3446 155.31 80.4374 159.321 83.3402C163.331 86.243 168.155 87.8082 173.107 87.8135C173.422 87.8135 173.737 87.8093 174.047 87.7925C174.346 87.7841 174.64 87.7673 174.934 87.7463C180.873 87.2817 186.414 84.5778 190.434 80.182C190.346 79.8712 190.245 79.5646 190.144 79.2538C186.261 83.6825 180.805 86.4244 174.934 86.8979V86.8979Z" fill="white"/>
<path d="M170.993 97.4637C171.384 97.4637 171.701 97.1467 171.701 96.7558C171.701 96.3648 171.384 96.0479 170.993 96.0479C170.602 96.0479 170.285 96.3648 170.285 96.7558C170.285 97.1467 170.602 97.4637 170.993 97.4637Z" fill="white"/>
<path d="M158.92 117.056L158.623 116.245C159.155 116.051 159.691 115.842 160.216 115.626L160.545 116.424C160.009 116.645 159.462 116.857 158.92 117.056Z" fill="#E4E4E4"/>
<path d="M145.461 119.692L145.43 118.83C146.55 118.789 147.682 118.703 148.795 118.574L148.894 119.432C147.759 119.563 146.604 119.65 145.461 119.692ZM142.019 119.682C140.876 119.633 139.722 119.539 138.589 119.401L138.693 118.544C139.803 118.679 140.935 118.772 142.056 118.82L142.019 119.682ZM152.295 118.903L152.129 118.056C153.228 117.841 154.333 117.579 155.412 117.278L155.644 118.11C154.543 118.417 153.416 118.684 152.295 118.903V118.903ZM135.191 118.849C134.071 118.622 132.946 118.346 131.848 118.03L132.086 117.201C133.163 117.51 134.265 117.78 135.363 118.004L135.191 118.849ZM128.58 116.949C127.51 116.546 126.443 116.096 125.409 115.61L125.776 114.829C126.79 115.305 127.835 115.746 128.884 116.141L128.58 116.949ZM122.354 114.025C121.364 113.46 120.381 112.848 119.434 112.204L119.919 111.49C120.848 112.121 121.811 112.722 122.781 113.275L122.354 114.025Z" fill="#E4E4E4"/>
<path d="M188.46 76.4575L177.701 86.3612L186.252 72.0161C179.515 59.8015 168.498 49.2451 168.498 49.2451C168.498 49.2451 145.64 71.1415 145.64 88.3535C145.64 105.566 155.874 111.575 168.498 111.575C181.121 111.575 191.355 105.566 191.355 88.3535C191.355 84.5225 190.221 80.4596 188.46 76.4575Z" fill="#F2F2F2"/>
<path d="M174.934 86.8977V87.7461C174.884 97.6078 173.22 105.302 169.957 110.72C169.91 110.8 169.86 110.876 169.814 110.955L169.448 110.733L169.1 110.514C172.72 104.664 174.002 96.394 174.048 87.7923C174.052 87.5151 174.056 87.2337 174.052 86.9523C174.039 83.3109 173.817 79.6275 173.46 76.049C173.435 75.7718 173.405 75.4904 173.376 75.209C172.88 70.4882 172.166 65.9774 171.435 62.0587C171.385 61.7815 171.33 61.5043 171.275 61.2313C170.011 54.6037 168.722 49.803 168.427 48.7404C168.394 48.6102 168.373 48.5388 168.369 48.522L168.768 48.4086L168.772 48.4044L169.175 48.291C169.179 48.3078 169.251 48.5472 169.368 48.9924C169.818 50.6556 170.986 55.1707 172.132 61.1263C172.183 61.3951 172.237 61.6723 172.288 61.9495C172.884 65.129 173.468 68.6822 173.93 72.4118C174.048 73.3484 174.153 74.2724 174.245 75.1838C174.279 75.4652 174.308 75.7466 174.333 76.0238C174.72 79.8921 174.92 83.5167 174.934 86.8977Z" fill="white"/>
<path d="M164.692 252.919L77.0839 221.431C75.0082 220.682 73.3144 219.141 72.3739 217.145C71.4334 215.149 71.323 212.862 72.0671 210.785L117.738 83.7492C118.486 81.6738 120.028 79.9802 122.024 79.0398C124.02 78.0994 126.308 77.9891 128.385 78.7331L215.993 110.221C218.069 110.97 219.763 112.511 220.703 114.507C221.644 116.503 221.754 118.79 221.01 120.867L175.34 247.902C174.591 249.978 173.049 251.671 171.053 252.612C169.057 253.552 166.77 253.662 164.692 252.919V252.919Z" fill="#3F3D56"/>
<path d="M166.643 247.977L78.7262 216.379C78.0864 216.148 77.5642 215.673 77.2743 215.057C76.9844 214.442 76.9504 213.737 77.1797 213.097L123.153 85.2201C123.383 84.5804 123.859 84.0583 124.474 83.7684C125.089 83.4785 125.794 83.4445 126.435 83.6739L214.352 115.273C214.991 115.503 215.514 115.978 215.803 116.594C216.093 117.209 216.127 117.914 215.898 118.554L169.925 246.431C169.694 247.071 169.219 247.593 168.604 247.883C167.989 248.173 167.283 248.207 166.643 247.977V247.977Z" fill="white"/>
<path d="M163.73 181.278C173.187 171.822 173.187 156.491 163.73 147.035C154.273 137.579 138.94 137.579 129.483 147.035C120.026 156.491 120.026 171.822 129.483 181.278C138.94 190.734 154.273 190.734 163.73 181.278Z" fill="#EF4444"/>
<path d="M140.766 174.445L137.289 160.386L139.098 159.94L141.977 171.579L162.31 159.69L163.25 161.298L140.766 174.445Z" fill="white"/>
<path d="M237.737 254.283H128.11C128.033 254.283 127.96 254.253 127.906 254.199C127.852 254.145 127.822 254.072 127.822 253.996C127.822 253.919 127.852 253.846 127.906 253.792C127.96 253.738 128.033 253.708 128.11 253.708H237.737C237.813 253.708 237.887 253.738 237.94 253.792C237.994 253.846 238.025 253.919 238.025 253.996C238.025 254.072 237.994 254.145 237.94 254.199C237.887 254.253 237.813 254.283 237.737 254.283Z" fill="#CACACA"/>
<path d="M178.196 204.071C178.439 203.867 178.634 203.613 178.768 203.326C178.903 203.038 178.972 202.725 178.972 202.408C178.972 202.091 178.902 201.778 178.768 201.491C178.634 201.203 178.438 200.949 178.195 200.746L176.583 172.372L171.982 173.412L175.024 201.123C174.709 201.554 174.563 202.085 174.614 202.616C174.665 203.148 174.909 203.642 175.3 204.005C175.691 204.369 176.202 204.576 176.736 204.588C177.269 204.6 177.789 204.416 178.196 204.071H178.196Z" fill="#9F616A"/>
<path d="M196.876 207.766C196.626 207.571 196.421 207.324 196.277 207.042C196.132 206.759 196.051 206.449 196.04 206.132C196.029 205.815 196.087 205.5 196.21 205.208C196.334 204.916 196.52 204.655 196.756 204.443L197.34 176.029L201.975 176.902L199.939 204.705C200.269 205.124 200.434 205.65 200.403 206.183C200.371 206.715 200.145 207.218 199.767 207.595C199.39 207.973 198.887 208.199 198.354 208.23C197.821 208.261 197.295 208.096 196.876 207.766V207.766Z" fill="#9F616A"/>
<path d="M199.329 249.994L202.938 249.993L203.968 241.574L199.328 241.575L199.329 249.994Z" fill="#9F616A"/>
<path d="M198.408 248.816L205.517 248.815H205.517C206.718 248.815 207.87 249.293 208.72 250.142C209.569 250.992 210.047 252.144 210.047 253.345V253.492L198.408 253.492L198.408 248.816Z" fill="#2F2E41"/>
<path d="M176.806 249.994L180.415 249.994L181.445 236.073H176.805L176.806 249.994Z" fill="#9F616A"/>
<path d="M175.885 248.816L182.993 248.815H182.993C184.195 248.815 185.347 249.293 186.196 250.142C187.046 250.992 187.523 252.144 187.523 253.345V253.492L175.885 253.492L175.885 248.816Z" fill="#2F2E41"/>
<path d="M191.346 160.132C194.607 160.132 197.251 157.489 197.251 154.228C197.251 150.967 194.607 148.323 191.346 148.323C188.085 148.323 185.441 150.967 185.441 154.228C185.441 157.489 188.085 160.132 191.346 160.132Z" fill="#9F616A"/>
<path d="M198.851 167.853C198.851 167.853 201.475 168.071 201.694 169.383C201.913 170.695 201.694 174.632 201.694 174.632C201.694 174.632 203.444 179.88 201.694 181.192C199.944 182.504 195.352 182.723 195.352 182.723L198.851 167.853Z" fill="#E4E4E4"/>
<path d="M176.543 197.593L174.137 201.529C174.137 201.529 175.012 218.805 175.23 219.242C175.404 219.499 175.481 219.809 175.449 220.117V222.522L176.105 243.516C176.105 243.516 174.355 244.39 176.543 245.046C178.73 245.702 181.573 245.921 182.01 243.734C182.448 241.548 182.468 223.33 182.448 222.741L182.666 221.866L186.166 208.964L194.258 226.896L199.07 247.015C199.07 247.015 206.352 247.855 205.039 245.012C203.727 242.17 200.6 220.992 200.6 220.992C200.6 220.992 199.944 218.805 199.944 218.367C199.944 217.93 199.726 217.711 199.726 217.274C199.726 216.837 199.507 215.525 199.507 215.525L197.976 201.748L176.543 197.593Z" fill="#2F2E41"/>
<path d="M178.73 164.135C178.73 164.135 176.105 163.916 175.449 166.103C174.793 168.29 169.325 176.6 170.419 177.474C171.513 178.349 179.823 181.411 180.042 181.192C180.261 180.973 178.73 164.135 178.73 164.135Z" fill="#E4E4E4"/>
<path d="M198.222 150.463C197.975 149.54 197.625 148.618 196.914 147.981C196.193 147.34 195.267 146.976 194.303 146.953C193.202 146.315 191.967 145.945 190.697 145.873C189.427 145.801 188.158 146.029 186.993 146.538C186.867 146.284 186.663 146.076 186.411 145.945C186.34 146.552 186.27 147.159 186.2 147.767C185.929 147.563 185.657 147.358 185.386 147.154C185.373 147.514 185.359 147.873 185.346 148.232C185.097 148.019 184.849 147.805 184.6 147.591C184.547 148.864 185.606 149.966 186.804 150.4C188.002 150.834 189.315 150.754 190.588 150.693C191.216 150.664 191.932 150.674 192.356 151.139C192.8 151.626 192.717 152.372 192.728 153.031C192.743 153.957 193.694 153.504 194.172 154.298C194.377 154.561 194.505 154.876 194.542 155.208C194.497 155.509 194.387 155.797 194.222 156.052C193.87 156.778 193.172 159.035 193.505 159.769C194.122 159.423 194.74 159.078 195.357 158.733C195.357 158.733 199.422 154.927 198.222 150.463Z" fill="#2F2E41"/>
<path d="M197.101 180.536C197.101 180.536 201.475 169.383 201.256 168.508C201.038 167.634 195.58 164.045 195.58 164.045C195.373 164.019 195.176 163.994 194.976 163.969C195.006 163.892 195.026 163.811 195.036 163.729L195.13 162.873C195.159 162.607 195.082 162.341 194.914 162.132C194.747 161.924 194.504 161.79 194.238 161.761L187.304 161.001C187.038 160.972 186.771 161.05 186.563 161.217C186.354 161.384 186.221 161.627 186.192 161.893L186.11 162.634C185.745 162.543 185.728 162.507 185.728 162.507C185.728 162.507 179.604 163.479 178.073 163.916C176.542 164.353 177.854 180.973 177.854 180.973C177.854 180.973 176.761 196.281 176.105 196.718C175.449 197.155 176.105 196.937 175.449 198.686C175.362 198.917 176.571 197.629 177.089 197.921C180.502 199.845 194.339 204.343 197.757 204.153C198.85 192.752 196.663 189.064 196.663 189.064L197.101 180.536Z" fill="#E4E4E4"/>
</svg>
