<svg width="609" height="395" viewBox="0 0 609 395" fill="none" xmlns="http://www.w3.org/2000/svg">
<g clip-path="url(#clip0_419_1377)">
<path d="M19.3013 303.161C22.3194 272.346 40.5608 241.586 69.5851 230.827C58.86 262.743 59.7665 297.425 72.1442 328.736C76.9615 340.795 83.5747 353.705 79.6617 366.086C77.2272 373.79 70.9367 379.8 63.8302 383.641C56.7233 387.481 48.7759 389.431 40.9275 391.343L39.4077 392.668C26.1403 364.694 16.2832 333.976 19.3013 303.161Z" fill="#F0F0F0"/>
<path d="M69.8904 231.4C53.5029 250.748 43.1887 275.458 41.3853 300.79C40.9954 306.267 41.0764 311.857 42.4106 317.21C43.7511 322.418 46.4615 327.173 50.26 330.979C53.7306 334.599 57.6996 337.899 60.23 342.3C62.8972 346.939 63.1343 352.282 61.5226 357.325C59.5506 363.496 55.4798 368.589 51.3258 373.432C46.7135 378.809 41.8377 384.321 40.0005 391.338C39.7779 392.188 38.472 391.793 38.6943 390.944C41.8908 378.736 53.4701 371.547 58.7933 360.487C61.2772 355.327 62.2214 349.386 59.6282 344.074C57.3606 339.43 53.2706 336.022 49.7249 332.387C46.0019 328.571 43.1137 324.352 41.5484 319.211C39.9472 313.952 39.6476 308.354 39.8958 302.891C40.5509 290.508 43.1485 278.305 47.5933 266.729C52.5929 253.489 59.8198 241.203 68.9614 230.401C69.5275 229.732 70.4529 230.736 69.8905 231.4L69.8904 231.4Z" fill="white"/>
<path d="M41.5376 292.525C37.2967 291.612 33.5186 289.22 30.8779 285.777C28.2373 282.335 26.906 278.065 27.1218 273.731C27.1322 273.555 27.2108 273.389 27.3409 273.269C27.4711 273.149 27.6427 273.085 27.8196 273.089C27.9965 273.093 28.1648 273.166 28.2891 273.292C28.4134 273.418 28.484 273.587 28.486 273.764C28.2775 277.799 29.518 281.776 31.9836 284.977C34.4492 288.178 37.9773 290.392 41.9314 291.219C42.7904 291.4 42.3917 292.705 41.5376 292.525V292.525Z" fill="white"/>
<path d="M48.2586 329.375C55.7514 324.631 61.1812 317.235 63.4652 308.664C63.6908 307.815 64.9967 308.21 64.7714 309.058C62.3779 317.973 56.7117 325.657 48.9038 330.577C48.1592 331.046 47.5181 329.841 48.2586 329.375Z" fill="white"/>
<path d="M53.8919 254.748C55.4592 255.444 57.1746 255.739 58.884 255.608C60.5935 255.476 62.2436 254.922 63.686 253.995C64.4242 253.517 65.0646 254.723 64.3311 255.197C62.7327 256.214 60.9096 256.824 59.0212 256.973C57.1328 257.123 55.2366 256.808 53.4981 256.055C53.3283 255.998 53.1866 255.878 53.1019 255.72C53.0171 255.562 52.9957 255.378 53.0419 255.205C53.0949 255.032 53.2139 254.887 53.3731 254.802C53.5323 254.716 53.7187 254.697 53.8919 254.748H53.8919Z" fill="white"/>
<path d="M160.279 283.36C159.826 283.672 159.374 283.983 158.921 284.306C152.859 288.523 147.15 293.227 141.85 298.369C141.434 298.76 141.018 299.163 140.614 299.565C127.977 312.09 117.774 326.854 110.524 343.105C107.646 349.574 105.263 356.253 103.397 363.084C100.821 372.518 98.778 382.951 93.3951 390.753C92.8427 391.574 92.24 392.359 91.5904 393.105L41.1419 394.42C41.0257 394.366 40.9093 394.323 40.7926 394.268L38.7808 394.413C38.8524 394.054 38.9344 393.683 39.006 393.324C39.0467 393.115 39.0986 392.907 39.1393 392.698C39.17 392.559 39.2013 392.42 39.221 392.293C39.231 392.247 39.2416 392.2 39.252 392.165C39.2717 392.038 39.3035 391.922 39.3236 391.806C39.7762 389.732 40.2443 387.658 40.7276 385.583C40.7273 385.571 40.7273 385.571 40.7383 385.559C44.4617 369.759 49.5366 354.131 56.8215 339.77C57.0408 339.338 57.2593 338.894 57.5017 338.462C60.8213 332.007 64.6628 325.834 68.9878 320.005C71.3663 316.821 73.9044 313.759 76.5924 310.832C83.5523 303.281 91.6563 296.872 100.607 291.841C118.452 281.813 139.304 277.605 158.794 282.938C159.292 283.075 159.78 283.212 160.279 283.36Z" fill="#F0F0F0"/>
<path d="M160.182 284.004C135.452 289.583 112.344 303.101 95.6565 322.241C92.0488 326.379 88.749 330.891 86.5921 335.969C84.5276 340.934 83.8302 346.363 84.5723 351.689C85.1645 356.67 86.3468 361.695 85.7183 366.733C85.0559 372.043 82.0291 376.452 77.7068 379.508C72.4184 383.247 66.1021 384.863 59.8705 386.228C52.9515 387.743 45.7408 389.208 40.0504 393.704C39.361 394.249 38.5562 393.147 39.2447 392.603C49.145 384.78 62.7175 386.014 73.6245 380.389C78.7139 377.765 83.0434 373.59 84.1699 367.787C85.155 362.713 83.9402 357.529 83.297 352.492C82.6217 347.202 82.8549 342.094 84.6994 337.047C86.5863 331.884 89.7166 327.233 93.2027 323.021C101.179 313.529 110.598 305.349 121.115 298.783C133.076 291.223 146.241 285.765 160.042 282.646C160.896 282.453 161.031 283.812 160.182 284.004H160.182Z" fill="white"/>
<path d="M100.752 315.733C97.9163 312.45 96.3392 308.265 96.3029 303.926C96.2666 299.587 97.7734 295.376 100.554 292.046C101.119 291.374 102.19 292.22 101.624 292.893C99.0287 295.99 97.6254 299.912 97.6675 303.953C97.7096 307.993 99.1941 311.885 101.853 314.927C102.43 315.589 101.326 316.391 100.752 315.733V315.733Z" fill="white"/>
<path d="M83.9397 349.203C92.7779 349.928 101.564 347.293 108.547 341.825C109.238 341.283 110.043 342.385 109.353 342.926C102.076 348.603 92.9267 351.326 83.7311 350.552C82.8547 350.478 83.0681 349.129 83.9397 349.203H83.9397Z" fill="white"/>
<path d="M133.355 293.011C134.188 294.51 135.379 295.779 136.824 296.703C138.268 297.628 139.919 298.179 141.628 298.308C142.505 298.371 142.291 299.719 141.42 299.656C139.532 299.505 137.709 298.894 136.111 297.877C134.513 296.859 133.189 295.465 132.254 293.817C132.153 293.669 132.112 293.488 132.139 293.311C132.167 293.134 132.26 292.974 132.401 292.864C132.548 292.758 132.73 292.714 132.908 292.741C133.087 292.769 133.247 292.866 133.355 293.011V293.011Z" fill="white"/>
<path d="M456.368 27.0366C455.614 24.8118 446.169 17.2494 451.957 15.9783L456.703 22.3091L478.526 0.480591L480.721 2.67603L456.368 27.0366Z" fill="#EF4444"/>
<path d="M456.368 101.263C455.614 99.038 446.169 91.4756 451.957 90.2045L456.703 96.5353L478.526 74.7068L480.721 76.9022L456.368 101.263Z" fill="#EF4444"/>
<path d="M456.368 176.549C455.614 174.324 446.169 166.762 451.957 165.491L456.703 171.822L478.526 149.993L480.721 152.189L456.368 176.549Z" fill="#EF4444"/>
<path d="M436.272 115.682C439.991 115.682 443.006 112.666 443.006 108.946C443.006 105.226 439.991 102.21 436.272 102.21C432.553 102.21 429.538 105.226 429.538 108.946C429.538 112.666 432.553 115.682 436.272 115.682Z" fill="#3F3D56"/>
<path d="M436.272 42.2602C439.991 42.2602 443.006 39.2444 443.006 35.5243C443.006 31.8041 439.991 28.7883 436.272 28.7883C432.553 28.7883 429.538 31.8041 429.538 35.5243C429.538 39.2444 432.553 42.2602 436.272 42.2602Z" fill="#3F3D56"/>
<path d="M609 20.0315H500.582V21.3787H609V20.0315Z" fill="#3F3D56"/>
<path d="M439.639 193.95C443.358 193.95 446.373 190.934 446.373 187.214C446.373 183.494 443.358 180.478 439.639 180.478C435.92 180.478 432.905 183.494 432.905 187.214C432.905 190.934 435.92 193.95 439.639 193.95Z" fill="#3F3D56"/>
<path d="M609 94.2574H500.582V95.6046H609V94.2574Z" fill="#3F3D56"/>
<path d="M609 169.544H500.582V170.891H609V169.544Z" fill="#3F3D56"/>
<path d="M473.376 186.586H439.706V152.233H462.601V153.58H441.052V185.239H472.029V169.746H473.376V186.586Z" fill="#3F3D56"/>
<path d="M473.376 111.143H439.706V76.7898H462.601V78.137H441.052V109.796H472.029V94.3033H473.376V111.143Z" fill="#3F3D56"/>
<path d="M473.376 34.3534H439.706V0H462.601V1.34719H441.052V33.0062H472.029V17.5135H473.376V34.3534Z" fill="#3F3D56"/>
<path d="M253.54 122.44C253.54 122.44 244.541 160.446 255.539 160.446C266.538 160.446 292.534 117.44 292.534 117.44L283.535 106.438L267.383 128.869L266.538 117.44L253.54 122.44Z" fill="#A0616A"/>
<path d="M290.136 119.092C294.97 119.092 298.89 115.171 298.89 110.335C298.89 105.499 294.97 101.578 290.136 101.578C285.301 101.578 281.381 105.499 281.381 110.335C281.381 115.171 285.301 119.092 290.136 119.092Z" fill="#A0616A"/>
<path d="M245.91 381.287L257.562 381.287L263.106 336.327L245.907 336.327L245.91 381.287Z" fill="#A0616A"/>
<path d="M245.499 393.447L281.333 393.445V392.992C281.333 389.292 279.863 385.744 277.247 383.127C274.632 380.511 271.084 379.041 267.385 379.041H267.384L260.839 374.074L248.627 379.042L245.499 379.042L245.499 393.447Z" fill="#2F2E41"/>
<path d="M120.565 366.745L130.991 371.949L156.023 334.198L140.634 326.516L120.565 366.745Z" fill="#A0616A"/>
<path d="M114.769 377.441L146.832 393.447L147.034 393.041C148.686 389.73 148.955 385.899 147.783 382.39C146.611 378.88 144.093 375.98 140.783 374.328L140.782 374.328L137.143 366.959L123.998 365.949L121.199 364.552L114.769 377.441Z" fill="#2F2E41"/>
<path d="M161 393H0V394H161V393Z" fill="#CCCCCC"/>
<path d="M170.572 191.387C170.572 191.387 165.915 247.396 164.915 259.397C164.23 266.92 162.548 274.319 159.916 281.4C159.916 281.4 157.916 285.401 157.916 289.401L135.253 330.601C135.253 330.601 128.327 335.693 129.327 339.693C130.327 343.694 125.152 346.094 125.152 346.094L149.018 350.695C149.018 350.695 148.018 347.694 151.018 346.694C154.018 345.694 156.405 337.019 156.405 337.019L189.911 282.4L213.908 232.394C213.908 232.394 227.905 277.4 230.905 282.4C230.905 282.4 241.903 338.408 243.903 343.408C245.903 348.409 246.903 348.409 245.903 350.409C244.903 352.41 244.903 354.41 245.903 355.41C246.903 356.41 265.9 355.41 265.9 355.41L260.9 284.401L251.902 199.389L205.909 185.387L170.572 191.387Z" fill="#2F2E41"/>
<path d="M215.601 57.6811C227.198 57.6811 236.598 48.2779 236.598 36.6783C236.598 25.0788 227.198 15.6755 215.601 15.6755C204.005 15.6755 194.604 25.0788 194.604 36.6783C194.604 48.2779 204.005 57.6811 215.601 57.6811Z" fill="#A0616A"/>
<path d="M253.902 88.3745L228.906 73.2263C228.906 73.2263 228.214 63.8196 221.092 63.377C217.516 63.1548 212.151 62.8151 204.099 62.2958C202.397 62.186 201.249 71.4986 199.299 71.3722L172.914 78.3731L176.914 146.382C176.914 146.382 170.914 173.386 172.914 178.386C174.914 183.387 167.915 185.387 169.915 186.388C171.914 187.388 169.915 194.389 169.915 194.389C169.915 194.389 208.909 214.391 251.902 199.389L247.903 186.388C248.447 184.688 248.549 182.878 248.199 181.128C247.849 179.377 247.059 177.746 245.903 176.386C245.903 176.386 249.902 170.385 244.903 165.385C244.903 165.385 246.903 156.384 241.904 152.383L240.904 138.381L243.903 131.38L253.902 88.3745Z" fill="#E6E6E6"/>
<path d="M197.382 48.6767L196.795 47.3131C196.719 47.1368 189.294 29.5779 195.876 18.7471C198.922 13.733 204.462 10.9021 212.341 10.3337C224.669 9.44207 233.107 12.3673 237.426 19.0221C238.151 20.1499 238.558 21.4521 238.605 22.7917C238.652 24.1314 238.337 25.459 237.694 26.6349C237.051 27.8108 236.103 28.7917 234.949 29.4744C233.796 30.157 232.48 30.5162 231.14 30.5143H230.974L228.709 27.5722L228.577 27.8584C227.757 29.6331 225.874 30.6047 223.668 30.3919C223.293 30.365 222.96 30.6889 222.693 31.3823C222.603 31.6856 222.434 31.9591 222.202 32.1741C221.97 32.3891 221.684 32.5376 221.375 32.6042C219.745 32.9215 217.422 30.8679 216.382 29.8443C216.342 30.0799 216.251 30.3041 216.117 30.5018C215.983 30.6995 215.808 30.8661 215.604 30.9902C214.508 31.6227 212.802 30.7965 212.313 30.5334C208.413 31.3622 205.888 31.1405 204.807 29.8752C204.073 35.0644 202.5 44.4046 200.613 44.9223C200.415 44.9676 200.209 44.9484 200.023 44.8673C199.838 44.7862 199.684 44.6476 199.583 44.472C199.128 43.8819 198.722 43.5879 198.469 43.6705C197.855 43.8658 197.493 45.8879 197.441 47.193L197.382 48.6767Z" fill="#2F2E41"/>
<path d="M242.903 89.3746L252.877 87.7537C260.062 94.6589 264.956 103.603 266.9 113.378C269.899 129.38 270.899 132.38 270.899 132.38L246.903 138.381L233.905 113.378L242.903 89.3746Z" fill="#E6E6E6"/>
<path d="M198.645 110.188L192.481 188.348L349.778 200.76L355.942 122.6L198.645 110.188Z" fill="white"/>
<path d="M215.45 116.244C211.601 113.494 206.714 113.295 204.847 113.335C205.416 115.113 207.186 119.674 211.036 122.425C214.894 125.182 219.776 125.375 221.64 125.336C221.071 123.559 219.3 118.995 215.45 116.244Z" fill="#EF4444"/>
<path d="M230.636 165.979L205.379 163.986C204.633 163.927 203.882 164.016 203.17 164.247C202.458 164.478 201.798 164.847 201.229 165.334C200.66 165.82 200.192 166.414 199.852 167.081C199.512 167.748 199.307 168.475 199.248 169.222C199.189 169.968 199.277 170.719 199.509 171.431C199.74 172.144 200.109 172.803 200.595 173.373C201.081 173.942 201.675 174.41 202.342 174.751C203.009 175.091 203.736 175.296 204.482 175.355V175.355L229.74 177.348C231.247 177.467 232.739 176.982 233.889 176C235.039 175.018 235.752 173.619 235.871 172.112C235.99 170.604 235.505 169.111 234.523 167.961C233.542 166.811 232.143 166.098 230.636 165.979V165.979Z" fill="#EF4444"/>
<path d="M349.741 115.003L208.131 103.828C206.484 103.698 204.828 103.894 203.256 104.405C201.685 104.916 200.23 105.731 198.973 106.804C197.717 107.877 196.684 109.188 195.934 110.66C195.184 112.133 194.731 113.739 194.602 115.386L189.156 184.397C188.894 187.725 189.964 191.021 192.131 193.56C194.298 196.099 197.385 197.674 200.712 197.937L342.322 209.112C343.969 209.242 345.626 209.045 347.197 208.535C348.769 208.024 350.224 207.209 351.48 206.136C352.737 205.062 353.769 203.752 354.52 202.279C355.27 200.807 355.722 199.201 355.852 197.553L361.028 131.962L361.132 130.622L361.296 128.537C361.426 126.889 361.23 125.232 360.72 123.66C360.209 122.088 359.394 120.633 358.321 119.376C357.248 118.119 355.938 117.086 354.466 116.336C352.994 115.585 351.389 115.133 349.741 115.003V115.003ZM345.56 175.046L344.663 186.415C344.499 188.423 343.546 190.284 342.014 191.592C340.482 192.9 338.495 193.548 336.486 193.394L317.541 191.901C315.534 191.737 313.673 190.784 312.365 189.252C311.058 187.719 310.41 185.731 310.564 183.722L311.462 172.353C311.626 170.345 312.579 168.484 314.111 167.177C315.643 165.869 317.63 165.221 319.638 165.374L338.576 166.869C340.584 167.034 342.445 167.986 343.753 169.518C345.061 171.049 345.711 173.037 345.56 175.046V175.046ZM197.995 169.117C198.142 167.278 199.012 165.571 200.415 164.373C201.818 163.174 203.639 162.581 205.479 162.724L230.735 164.718C231.648 164.789 232.537 165.039 233.353 165.453C234.169 165.868 234.895 166.439 235.49 167.134C236.085 167.83 236.537 168.635 236.821 169.506C237.105 170.376 237.214 171.294 237.143 172.206C237.072 173.119 236.821 174.008 236.406 174.824C235.991 175.64 235.42 176.366 234.724 176.961C234.028 177.555 233.222 178.007 232.352 178.29C231.482 178.573 230.564 178.681 229.652 178.609L229.639 178.613L204.383 176.619C203.47 176.546 202.581 176.295 201.766 175.879C200.952 175.463 200.227 174.89 199.633 174.193C199.04 173.496 198.59 172.689 198.309 171.818C198.027 170.947 197.921 170.03 197.995 169.117V169.117ZM203.401 112.884L203.229 112.178L203.955 112.111C204.239 112.081 210.958 111.477 216.188 115.214C221.417 118.951 223.021 125.507 223.091 125.781L223.257 126.49L222.532 126.563C221.503 126.639 220.47 126.633 219.442 126.542C216.172 126.351 213.014 125.284 210.298 123.453C205.068 119.717 203.465 113.16 203.401 112.884V112.884Z" fill="#EF4444"/>
<path d="M324.313 182.586L316.105 181.938C315.519 181.893 314.939 182.082 314.493 182.464C314.047 182.846 313.77 183.389 313.724 183.975C313.678 184.56 313.866 185.14 314.247 185.587C314.628 186.034 315.171 186.312 315.756 186.359L323.964 187.007C324.55 187.052 325.13 186.863 325.576 186.481C326.022 186.1 326.299 185.556 326.345 184.971C326.391 184.385 326.203 183.805 325.822 183.358C325.441 182.911 324.899 182.633 324.313 182.586V182.586Z" fill="#EF4444"/>
<path d="M339.468 183.781L331.259 183.134C330.674 183.089 330.094 183.278 329.648 183.66C329.202 184.042 328.926 184.585 328.88 185.17C328.834 185.756 329.022 186.336 329.402 186.783C329.783 187.23 330.325 187.507 330.91 187.555L339.119 188.203C339.704 188.247 340.283 188.058 340.729 187.676C341.175 187.295 341.452 186.751 341.498 186.166C341.544 185.581 341.356 185.001 340.975 184.554C340.595 184.107 340.053 183.829 339.468 183.781V183.781Z" fill="#EF4444"/>
<path d="M324.761 176.901L316.553 176.254C315.968 176.209 315.388 176.398 314.942 176.78C314.496 177.162 314.22 177.705 314.174 178.29C314.128 178.876 314.316 179.455 314.696 179.902C315.077 180.349 315.619 180.627 316.204 180.675L324.413 181.323C324.998 181.368 325.578 181.179 326.024 180.797C326.47 180.415 326.747 179.872 326.793 179.286C326.839 178.7 326.651 178.12 326.271 177.673C325.89 177.226 325.347 176.948 324.761 176.901V176.901Z" fill="#EF4444"/>
<path d="M339.916 178.097L331.707 177.449C331.122 177.404 330.542 177.593 330.096 177.975C329.649 178.357 329.373 178.9 329.327 179.486C329.281 180.072 329.469 180.652 329.849 181.099C330.23 181.546 330.773 181.823 331.358 181.871L339.567 182.518C340.153 182.564 340.732 182.375 341.178 181.993C341.625 181.611 341.901 181.067 341.948 180.482C341.994 179.896 341.806 179.316 341.425 178.869C341.044 178.422 340.501 178.144 339.916 178.097V178.097Z" fill="#EF4444"/>
<path d="M325.21 171.217L317.001 170.569C316.416 170.524 315.836 170.713 315.39 171.095C314.943 171.477 314.667 172.02 314.621 172.606C314.574 173.191 314.762 173.771 315.143 174.218C315.524 174.665 316.067 174.943 316.652 174.99L324.861 175.638C325.446 175.683 326.026 175.493 326.472 175.112C326.918 174.73 327.194 174.187 327.24 173.601C327.286 173.016 327.098 172.436 326.718 171.989C326.337 171.542 325.795 171.264 325.21 171.217V171.217Z" fill="#EF4444"/>
<path d="M340.364 172.412L332.155 171.765C331.57 171.72 330.991 171.909 330.545 172.291C330.099 172.673 329.823 173.216 329.776 173.801C329.73 174.387 329.918 174.967 330.299 175.414C330.679 175.861 331.222 176.138 331.807 176.186L340.015 176.834C340.601 176.878 341.18 176.689 341.626 176.307C342.072 175.926 342.348 175.382 342.394 174.797C342.44 174.212 342.253 173.632 341.872 173.185C341.491 172.738 340.949 172.46 340.364 172.412V172.412Z" fill="#EF4444"/>
<path d="M192.496 137.161L192.391 138.505L358.622 151.566L358.727 150.223L192.496 137.161Z" fill="white"/>
<path d="M361.131 130.622L361.027 131.962L355.242 131.508L293.603 126.665L293.714 125.323L355.346 130.167L361.131 130.622Z" fill="#3F3D56"/>
<path d="M157.916 116.378C157.916 116.378 148.918 154.383 159.916 154.383C170.915 154.383 196.911 111.377 196.911 111.377L187.912 100.376L171.76 122.807L170.914 111.377L157.916 116.378Z" fill="#A0616A"/>
<path d="M194.513 113.03C199.347 113.03 203.267 109.109 203.267 104.273C203.267 99.4368 199.347 95.5162 194.513 95.5162C189.678 95.5162 185.758 99.4368 185.758 104.273C185.758 109.109 189.678 113.03 194.513 113.03Z" fill="#A0616A"/>
<path d="M180.197 84.374L174.198 78.3732C174.198 78.3732 162.2 85.3741 161.2 92.375C160.2 99.376 155.201 121.379 155.201 121.379L173.698 122.879L179.697 113.878L180.197 84.374Z" fill="#E6E6E6"/>
</g>
<defs>
<clipPath id="clip0_419_1377">
<rect width="609" height="395" fill="white"/>
</clipPath>
</defs>
</svg>
